<svg width="35" height="34" viewBox="0 0 35 34" fill="none" xmlns="http://www.w3.org/2000/svg">
<path d="M3.64746 17.0317C3.6491 23.9585 8.68605 29.8564 15.5272 30.9419V21.101H11.955V17.0317H15.5314V13.934C15.3716 12.4662 15.8729 11.0033 16.8996 9.94209C17.9262 8.88089 19.3717 8.33139 20.844 8.44261C21.9008 8.45967 22.955 8.55379 23.9981 8.72422V12.1866H22.2183C21.6056 12.1064 20.9896 12.3087 20.5438 12.7367C20.098 13.1647 19.8708 13.7719 19.926 14.3874V17.0317H23.8277L23.2039 21.1024H19.926V30.9419C27.3246 29.7727 32.5127 23.0157 31.7318 15.5661C30.951 8.11646 24.4744 2.58218 16.9942 2.97256C9.51393 3.36295 3.64865 9.54132 3.64746 17.0317Z" fill="#FAA61A" fill-opacity="0.76"/>
</svg>
