<svg width="34" height="34" viewBox="0 0 34 34" fill="none" xmlns="http://www.w3.org/2000/svg">
<path d="M17.004 29.758C13.5402 29.758 13.1319 29.7397 11.7802 29.6805C10.726 29.6459 9.68558 29.4316 8.70356 29.0469C7.00447 28.3857 5.66095 27.0417 5.00037 25.3423C4.63048 24.3567 4.43098 23.3154 4.41039 22.2629C4.33154 20.914 4.33154 20.4719 4.33154 17.0348C4.33154 13.5611 4.34985 13.1556 4.41039 11.8109C4.43143 10.7598 4.63093 9.71997 5.00037 8.73572C5.66023 7.03413 7.00594 5.68894 8.70778 5.02972C9.69151 4.65828 10.7316 4.45826 11.783 4.43834C13.1277 4.3623 13.5698 4.3623 17.004 4.3623C20.496 4.3623 20.8973 4.38061 22.2279 4.43834C23.282 4.45843 24.3249 4.65843 25.3116 5.02972C27.0129 5.68968 28.3584 7.03462 29.019 8.73572C29.3951 9.73431 29.5957 10.7904 29.6118 11.8574C29.6906 13.2063 29.6906 13.647 29.6906 17.0827C29.6906 20.5183 29.6709 20.9689 29.6118 22.3023C29.5908 23.3558 29.3908 24.3981 29.0204 25.3846C28.3581 27.0851 27.0126 28.4296 25.3116 29.0906C24.3263 29.4598 23.2855 29.6592 22.2336 29.6805C20.8889 29.758 20.4481 29.758 17.004 29.758ZM16.9562 6.59126C13.5121 6.59126 13.1544 6.60815 11.8097 6.6687C11.0071 6.67933 10.2123 6.82745 9.45968 7.1066C8.34838 7.53185 7.46901 8.40764 7.03923 9.5172C6.75792 10.278 6.60979 11.0815 6.60133 11.8926C6.5267 13.257 6.5267 13.6146 6.5267 17.0348C6.5267 20.4141 6.53937 20.8239 6.60133 22.1798C6.61393 22.9827 6.76198 23.7777 7.03923 24.5313C7.46964 25.6401 8.34886 26.5152 9.45968 26.9405C10.2117 27.2215 11.0069 27.3697 11.8097 27.3784C13.1727 27.4572 13.5318 27.4572 16.9562 27.4572C20.4101 27.4572 20.7678 27.4403 22.1012 27.3784C22.9044 27.3686 23.6998 27.2205 24.4527 26.9405C25.5572 26.5116 26.4309 25.6384 26.8604 24.5341C27.1412 23.7727 27.2893 22.9688 27.2983 22.1573H27.3138C27.3744 20.8112 27.3744 20.4522 27.3744 17.0123C27.3744 13.5724 27.3589 13.2105 27.2983 11.8658C27.2857 11.0639 27.1377 10.2698 26.8604 9.5172C26.4319 8.41127 25.5581 7.53647 24.4527 7.1066C23.7 6.82604 22.9044 6.67788 22.1012 6.6687C20.7396 6.59126 20.3834 6.59126 16.9562 6.59126ZM17.004 23.5386C14.371 23.5403 11.9962 21.9556 10.9872 19.5235C9.97828 17.0914 10.5339 14.291 12.395 12.4283C14.256 10.5656 17.0559 10.0076 19.4889 11.0144C21.9219 12.0213 23.5087 14.3947 23.5093 17.0278C23.5054 20.6198 20.5961 23.5316 17.004 23.5386ZM17.004 12.8008C14.6711 12.8008 12.7799 14.692 12.7799 17.0249C12.7799 19.3579 14.6711 21.2491 17.004 21.2491C19.337 21.2491 21.2282 19.3579 21.2282 17.0249C21.2228 14.6943 19.3347 12.8062 17.004 12.8008ZM23.7627 11.7968C22.9255 11.7937 22.2489 11.1134 22.2505 10.2761C22.252 9.43895 22.9311 8.76108 23.7683 8.76108C24.6055 8.76108 25.2847 9.43894 25.2862 10.2761C25.2866 10.6801 25.1261 11.0675 24.8402 11.3528C24.5544 11.6382 24.1666 11.798 23.7627 11.7968Z" fill="#FAA61A" fill-opacity="0.76"/>
</svg>
