<svg width="35" height="34" viewBox="0 0 35 34" fill="none" xmlns="http://www.w3.org/2000/svg">
<path d="M18.6865 29.7014H13.0543V12.8048H18.6865V15.6209C19.8871 14.0935 21.7077 13.1829 23.6499 13.1385C27.1427 13.1579 29.9611 16.0002 29.951 19.493V29.7014H24.3187V20.1971C24.0935 18.6237 22.7442 17.4564 21.1548 17.4598C20.4596 17.4818 19.8034 17.7862 19.3377 18.3027C18.8719 18.8192 18.6367 19.5033 18.6865 20.1971V29.7014ZM10.2382 29.7014H4.60596V12.8048H10.2382V29.7014ZM7.42207 9.98867C5.86677 9.98867 4.60596 8.72785 4.60596 7.17256C4.60596 5.61726 5.86677 4.35645 7.42207 4.35645C8.97736 4.35645 10.2382 5.61726 10.2382 7.17256C10.2382 7.91944 9.94148 8.63572 9.41336 9.16385C8.88524 9.69197 8.16895 9.98867 7.42207 9.98867Z" fill="#FAA61A" fill-opacity="0.76"/>
</svg>
