<svg width="35" height="34" viewBox="0 0 35 34" fill="none" xmlns="http://www.w3.org/2000/svg">
<path d="M29.1161 9.54981C30.3783 8.79521 31.3228 7.60702 31.7731 6.20708C30.587 6.91083 29.2893 7.40657 27.9361 7.67287C26.06 5.68825 23.0875 5.20529 20.6796 6.49384C18.2717 7.78239 17.0244 10.5235 17.6348 13.1854C12.7765 12.9415 8.25007 10.6466 5.18196 6.87168C3.58078 9.63347 4.39902 13.164 7.05186 14.9398C6.09257 14.909 5.15455 14.6493 4.31601 14.1823C4.31601 14.2077 4.31601 14.233 4.31601 14.2583C4.31657 17.1352 6.34413 19.6133 9.16395 20.1834C8.27414 20.4255 7.3408 20.4612 6.43513 20.2876C7.22815 22.7479 9.49561 24.4334 12.08 24.4836C9.93955 26.1636 7.29613 27.0747 4.57509 27.0702C4.09279 27.0709 3.61087 27.0432 3.13184 26.9872C5.89499 28.7628 9.11096 29.7052 12.3954 29.7019C16.9649 29.7333 21.3563 27.9318 24.5874 24.7005C27.8185 21.4692 29.6195 17.0776 29.5878 12.5081C29.5878 12.2462 29.5817 11.9857 29.5695 11.7267C30.7529 10.8714 31.7742 9.81191 32.5855 8.59796C31.4831 9.08664 30.3136 9.40748 29.1161 9.54981Z" fill="#FAA61A" fill-opacity="0.76"/>
</svg>
