<svg width="35" height="34" viewBox="0 0 35 34" fill="none" xmlns="http://www.w3.org/2000/svg">
<path d="M17.1487 26.9006H17.1205C17.0332 26.9006 8.29907 26.8837 6.09546 26.2852C4.88372 25.9588 3.9374 25.012 3.61165 23.8C3.21539 21.5646 3.02404 19.2976 3.03998 17.0273C3.02974 14.7533 3.22627 12.4831 3.62714 10.2447C3.96185 9.03166 4.90401 8.08043 6.11377 7.73412C8.25683 7.1709 16.7502 7.1709 17.1107 7.1709H17.1402C17.229 7.1709 25.9856 7.1878 28.1667 7.78622C29.3759 8.11431 30.3203 9.05924 30.6477 10.2686C31.0566 12.5124 31.2485 14.7904 31.2208 17.0709C31.2307 19.3422 31.0337 21.6096 30.6322 23.8451C30.3023 25.0555 29.3554 26.0003 28.1442 26.3275C26.004 26.8949 17.5092 26.9006 17.1487 26.9006ZM14.3326 12.8102L14.3255 21.2585L21.6643 17.0343L14.3326 12.8102Z" fill="#FAA61A" fill-opacity="0.76"/>
</svg>
