<svg width="42" height="15" viewBox="0 0 42 15" fill="none" xmlns="http://www.w3.org/2000/svg">
<path d="M5.67441 6.09707C6.44961 6.09707 7.05254 5.9894 7.4832 5.77407C8.15996 5.43569 8.49834 4.82661 8.49834 3.94683C8.49834 3.06089 8.13843 2.46411 7.4186 2.15649C7.01255 1.98423 6.40962 1.8981 5.60981 1.8981H2.33369V6.09707H5.67441ZM6.29272 12.354C7.4186 12.354 8.22148 12.0279 8.70137 11.3758C9.00283 10.9636 9.15356 10.4652 9.15356 9.88076C9.15356 8.89639 8.71367 8.22578 7.83389 7.86895C7.36631 7.67822 6.748 7.58286 5.97895 7.58286H2.33369V12.354H6.29272ZM0.534131 0.366162H6.35732C7.94463 0.366162 9.07358 0.839893 9.74419 1.78735C10.1379 2.34722 10.3348 2.99321 10.3348 3.72534C10.3348 4.58052 10.0918 5.28188 9.60576 5.82944C9.35352 6.1186 8.99053 6.38315 8.5168 6.6231C9.21201 6.88765 9.73188 7.18604 10.0764 7.51826C10.6855 8.10889 10.99 8.92407 10.99 9.96382C10.99 10.8375 10.7163 11.628 10.1687 12.3355C9.35044 13.3938 8.04922 13.9229 6.26504 13.9229H0.534131V0.366162ZM14.2385 11.2927C14.2385 11.7726 14.4138 12.151 14.7645 12.4278C15.1152 12.7047 15.5305 12.8431 16.0104 12.8431C16.5948 12.8431 17.1608 12.7078 17.7084 12.4371C18.6313 11.9879 19.0927 11.2527 19.0927 10.2314V8.89331C18.8896 9.02251 18.6282 9.13018 18.3083 9.21631C17.9883 9.30244 17.6746 9.36396 17.3669 9.40088L16.361 9.53008C15.7581 9.61006 15.3059 9.73618 15.0044 9.90845C14.4938 10.1976 14.2385 10.659 14.2385 11.2927ZM18.2621 7.93355C18.6436 7.88433 18.8989 7.72437 19.0281 7.45366C19.1019 7.30601 19.1388 7.09375 19.1388 6.81689C19.1388 6.25088 18.9358 5.84175 18.5297 5.5895C18.1298 5.3311 17.5546 5.2019 16.804 5.2019C15.9365 5.2019 15.3213 5.43569 14.9583 5.90327C14.7553 6.16167 14.623 6.54619 14.5615 7.05684H13.0111C13.0418 5.83867 13.4356 4.99272 14.1923 4.51899C14.9552 4.03911 15.8381 3.79917 16.8409 3.79917C18.0037 3.79917 18.9481 4.02065 19.6741 4.46362C20.3939 4.90659 20.7538 5.59565 20.7538 6.53081V12.2248C20.7538 12.3971 20.7876 12.5355 20.8553 12.6401C20.9292 12.7447 21.0799 12.797 21.3075 12.797C21.3813 12.797 21.4644 12.7939 21.5567 12.7877C21.649 12.7754 21.7474 12.7601 21.852 12.7416V13.969C21.5936 14.0428 21.3967 14.089 21.2614 14.1074C21.126 14.1259 20.9415 14.1351 20.7077 14.1351C20.1355 14.1351 19.7202 13.9321 19.4618 13.526C19.3265 13.3107 19.2311 13.0062 19.1757 12.6124C18.8374 13.0554 18.3513 13.4399 17.7176 13.766C17.0839 14.092 16.3856 14.2551 15.6228 14.2551C14.7061 14.2551 13.9555 13.9782 13.371 13.4245C12.7927 12.8646 12.5035 12.1664 12.5035 11.3296C12.5035 10.4129 12.7896 9.70234 13.3618 9.19785C13.9339 8.69336 14.6845 8.38267 15.6135 8.26577L18.2621 7.93355ZM27.2968 3.75303C28.4104 3.75303 29.3148 4.02373 30.01 4.56514C30.7114 5.10654 31.1328 6.03862 31.2743 7.36138H29.6593C29.5609 6.7523 29.3363 6.2478 28.9856 5.8479C28.635 5.44185 28.072 5.23882 27.2968 5.23882C26.2386 5.23882 25.4819 5.75562 25.0266 6.78921C24.7313 7.45981 24.5836 8.2873 24.5836 9.27168C24.5836 10.2622 24.7928 11.0958 25.2112 11.7726C25.6295 12.4494 26.2878 12.7877 27.1861 12.7877C27.8751 12.7877 28.4196 12.5786 28.8195 12.1602C29.2256 11.7357 29.5055 11.1574 29.6593 10.4252H31.2743C31.0897 11.7357 30.6283 12.6955 29.89 13.3045C29.1518 13.9075 28.2074 14.2089 27.0569 14.2089C25.7649 14.2089 24.7344 13.7383 23.9653 12.797C23.1963 11.8495 22.8118 10.6683 22.8118 9.25322C22.8118 7.51826 23.2332 6.16782 24.0761 5.2019C24.9189 4.23599 25.9925 3.75303 27.2968 3.75303ZM32.8985 0.366162H34.4951V8.23809L38.7586 4.03911H40.8812L37.0975 7.73975L41.0935 13.9229H38.9709L35.8886 8.93945L34.4951 10.213V13.9229H32.8985V0.366162Z" fill="white"/>
</svg>
