<svg width="35" height="35" viewBox="0 0 35 35" fill="none" xmlns="http://www.w3.org/2000/svg">
<path fill-rule="evenodd" clip-rule="evenodd" d="M17.7547 34.3722C8.47196 34.3722 0.919922 26.8201 0.919922 17.5374C0.919922 8.25467 8.47196 0.702637 17.7547 0.702637C27.0374 0.702637 34.5894 8.25467 34.5894 17.5374C34.5894 26.8201 27.0374 34.3722 17.7547 34.3722ZM20.8496 26.487C23.2423 25.6573 25.2026 23.8939 26.2914 21.6343H22.4355C22.2193 22.9342 21.8993 24.1329 21.4858 25.1667C21.2908 25.6539 21.0779 26.0944 20.8496 26.487ZM9.21808 21.6344C10.3069 23.8938 12.2671 25.6573 14.6598 26.4871C14.4315 26.0944 14.2185 25.6539 14.0236 25.1668C13.61 24.1329 13.2901 22.9343 13.0738 21.6344H9.21808ZM14.6598 8.58775C12.2671 9.41752 10.3069 11.181 9.21808 13.4405H13.0738C13.2901 12.1406 13.61 10.9419 14.0236 9.90809C14.2185 9.42087 14.4315 8.98041 14.6598 8.58775ZM17.7547 8.06784C17.0643 8.06784 16.2542 9.02092 15.6406 10.5549C15.3021 11.4013 15.0337 12.3782 14.841 13.4405H20.6685C20.4757 12.3783 20.2074 11.4013 19.8688 10.5549C19.2551 9.02092 18.445 8.06784 17.7547 8.06784ZM8.28513 17.5374C8.28513 18.3503 8.38818 19.1395 8.58171 19.8928H12.8533C12.7842 19.1267 12.7475 18.3385 12.7475 17.5374C12.7475 16.7363 12.7842 15.9481 12.8533 15.182H8.58171C8.38818 15.9353 8.28513 16.7245 8.28513 17.5374ZM14.6009 19.8928H20.9085C20.982 19.1316 21.0204 18.3424 21.0204 17.5374C21.0204 16.7324 20.9821 15.9432 20.9085 15.182H14.6009C14.5274 15.9432 14.489 16.7324 14.489 17.5374C14.489 18.3424 14.5273 19.1316 14.6009 19.8928ZM17.7547 27.007C18.445 27.007 19.2551 26.0539 19.8688 24.5199C20.2074 23.6735 20.4757 22.6966 20.6684 21.6343H14.8409C15.0336 22.6965 15.302 23.6735 15.6405 24.5199C16.2542 26.0539 17.0643 27.007 17.7547 27.007ZM27.2242 17.5374C27.2242 16.7245 27.1212 15.9353 26.9277 15.182H22.656C22.7251 15.9481 22.7618 16.7363 22.7618 17.5374C22.7618 18.3385 22.7251 19.1267 22.656 19.8928H26.9277C27.1212 19.1395 27.2242 18.3503 27.2242 17.5374ZM26.2913 13.4404C25.2026 11.1809 23.2423 9.41745 20.8495 8.58768C21.0778 8.98041 21.2908 9.42087 21.4857 9.90809C21.8993 10.9419 22.2192 12.1405 22.4355 13.4405H26.2913V13.4404ZM28.9658 17.5374C28.9658 23.7192 23.9365 28.7485 17.7547 28.7485C11.5728 28.7485 6.54359 23.7192 6.54359 17.5374C6.54359 11.3556 11.5728 6.3263 17.7547 6.3263C23.9365 6.3263 28.9658 11.3556 28.9658 17.5374Z" fill="#9DA28C"/>
</svg>
