<svg width="182" height="97" viewBox="0 0 182 97" fill="none" xmlns="http://www.w3.org/2000/svg">
<path d="M149.012 43.3018C142.094 17.8458 120.507 0 95.5376 0C78.1261 0 61.9069 8.73369 51.3654 23.5657C48.456 22.8994 45.4805 22.5613 42.4951 22.5578C19.0669 22.5558 0 43.2214 0 68.6322C0 77.7443 2.4654 86.5702 7.11832 94.1587C8.21208 95.9352 10.0547 97 12.0255 97H51.2885C51.5703 78.8326 66.4396 64.1869 84.7655 64.1869C103.091 64.1869 117.959 78.8326 118.242 97H171.344C173.21 97 174.962 96.049 176.08 94.4215C179.952 88.7784 182.016 82.1007 182 75.2677C181.998 56.3336 166.597 41.0095 149.012 43.3018Z" fill="white"/>
</svg>
