<svg width="29" height="192" viewBox="0 0 29 192" fill="none" xmlns="http://www.w3.org/2000/svg">
<path d="M11.08 174.412C7.408 174.448 0.459998 175.636 0.459998 185.032C0.459998 190.036 1.468 191.296 1.468 191.296L28.18 191.476C28.18 190.216 26.884 184.924 26.164 183.484C22.852 177.004 18.82 174.412 11.08 174.412ZM11.872 178.12C17.848 178.12 22.744 181.756 24.184 187.624H4.168C4.168 187.624 3.448 186.832 3.628 184.168C3.88 179.848 8.56 178.12 11.872 178.12ZM28 152.656L1.432 159.856L1.396 162.664L28 169.828V166.552L25.048 165.796V156.976L28 156.004V152.656ZM18.424 158.596V164.032L8.416 161.476L18.424 158.596ZM22.384 157.516V165.256L21.088 164.968V157.912L22.384 157.516ZM20.368 132.688C15.832 132.688 12.916 135.748 7.228 141.256C4.78 142.804 3.88 141.436 3.448 140.14C3.088 139.06 3.88 136.648 3.88 136.648C3.376 136.504 0.927999 136.108 1.072 136.216C1.072 136.216 0.0639992 138.196 0.243999 140.32C0.495998 142.912 1.972 145.9 5.752 145.576C9.172 145.288 12.628 141.256 13.96 139.816C17.848 135.784 19.108 136.54 20.44 136.288C22.204 135.892 25.84 137.944 25.264 141.904C25.084 143.2 24.148 145.54 24.148 145.54L27.064 147.052C27.172 146.98 28.468 145.54 28.468 140.032C28.468 136.144 23.788 132.688 20.368 132.688ZM28.288 111.244H1.18V114.484H6.184V122.692H1.108L1.108 126.112H28.288V122.692H12.916V114.484H28.288V111.244ZM9.964 114.448V122.692H8.848V114.448H9.964ZM19.756 88.0846C16.336 88.0846 13.276 88.9846 8.992 94.3486L5.104 93.0166C2.332 92.4406 0.747999 96.2566 0.747999 97.5166L0.747999 105.005H28.144V96.4366C28.216 95.7526 27.676 92.8006 26.2 90.6046C23.356 88.1566 21.88 88.0846 19.756 88.0846ZM5.644 96.7966C7.624 96.7966 9.316 100.289 9.964 101.657H4.276V97.1206C4.564 97.1206 4.96 96.7966 5.644 96.7966ZM19.756 91.6486C22.672 91.6486 24.94 94.2406 24.904 96.6886V101.621H13.852L11.332 97.4806C13.276 94.0246 16.768 91.6486 19.756 91.6486ZM9.208 67.2193C4.384 67.2193 0.459998 71.1433 0.459998 75.9673C0.459998 80.7913 4.384 84.3913 9.208 84.3913C14.032 84.3913 17.38 80.5033 17.38 75.6793C17.38 70.8553 14.032 67.2193 9.208 67.2193ZM27.892 73.7353H24.364V77.6953H27.892V73.7353ZM8.884 70.4953C11.8 70.4953 14.176 72.8713 14.176 75.7873C14.176 78.6673 11.8 81.0433 8.884 81.0433C6.004 81.0433 3.628 78.6673 3.628 75.7513C3.628 72.8713 6.004 70.4953 8.92 70.4953H8.884ZM28 44.9234L1.432 52.1235L1.396 54.9315L28 62.0955V58.8195L25.048 58.0635V49.2434L28 48.2715V44.9234ZM18.424 50.8635V56.2995L8.416 53.7434L18.424 50.8635ZM22.384 49.7835V57.5235L21.088 57.2355V50.1795L22.384 49.7835ZM28.072 22.0035L12.016 30.1755C11.404 27.8715 10.288 24.8475 7.624 24.4875C3.376 23.9115 0.999998 26.1075 0.999998 30.3555L0.999998 39.3555H28.036V35.8995L12.232 35.9355C12.232 35.8995 12.232 34.4235 12.232 34.1355L28.072 26.0355V22.0035ZM6.904 28.1235C8.092 28.5915 8.812 29.6715 8.848 31.1475L8.848 35.9355H4.024C4.024 35.9355 3.7 30.2475 4.276 29.2035C5.032 27.7275 6.292 27.9075 6.904 28.1235ZM11.08 0.499728C7.408 0.535728 0.459998 1.72373 0.459998 11.1197C0.459998 16.1237 1.468 17.3837 1.468 17.3837L28.18 17.5637C28.18 16.3037 26.884 11.0117 26.164 9.57173C22.852 3.09173 18.82 0.499728 11.08 0.499728ZM11.872 4.20773C17.848 4.20773 22.744 7.84373 24.184 13.7117H4.168C4.168 13.7117 3.448 12.9197 3.628 10.2557C3.88 5.93573 8.56 4.20773 11.872 4.20773Z" fill="black"/>
</svg>
