<svg width="29" height="29" viewBox="0 0 29 29" fill="none" xmlns="http://www.w3.org/2000/svg">
<path d="M0.728516 14.8371C0.730148 21.7385 5.74864 27.6147 12.5648 28.6963V18.8915H9.00561V14.8371H12.569V11.7507C12.4097 10.2883 12.9092 8.83073 13.9321 7.77342C14.955 6.71611 16.3952 6.16862 17.8621 6.27943C18.915 6.29643 19.9653 6.39021 21.0046 6.56001V10.0097H19.2313C18.6208 9.92977 18.0071 10.1314 17.563 10.5578C17.1188 10.9842 16.8924 11.5892 16.9474 12.2025V14.8371H20.8348L20.2133 18.8929H16.9474V28.6963C24.3189 27.5313 29.488 20.7991 28.71 13.3768C27.932 5.95447 21.4792 0.440473 14.0263 0.829425C6.57349 1.21838 0.7297 7.37412 0.728516 14.8371Z" fill="#9DA28C"/>
</svg>
