<svg width="80" height="80" viewBox="0 0 80 80" fill="none" xmlns="http://www.w3.org/2000/svg">
<circle cx="40" cy="40" r="40" fill="#C74C00"/>
<g clip-path="url(#clip0_2101_38)">
<g clip-path="url(#clip1_2101_38)">
<g clip-path="url(#clip2_2101_38)">
<path d="M58.1266 43.3543C58.0508 43.3379 57.9725 43.3366 57.8962 43.3505C57.8199 43.3645 57.7471 43.3933 57.682 43.4354C57.6169 43.4776 57.5607 43.5322 57.5167 43.5961C57.4728 43.6599 57.4419 43.7319 57.4258 43.8078C56.5219 47.9566 54.2022 51.6614 50.8649 54.2867C47.5276 56.9119 43.3806 58.2939 39.1357 58.1954C34.8907 58.0969 30.8123 56.5241 27.6003 53.7469C24.3883 50.9697 22.243 47.1612 21.5325 42.9749C20.822 38.7887 21.5905 34.4856 23.7063 30.8042C25.822 27.1227 29.1531 24.2923 33.1278 22.7987C37.1026 21.3051 41.4733 21.2413 45.4899 22.6184C49.5065 23.9954 52.9187 26.7275 55.1409 30.3457H49.5523C49.3961 30.3457 49.2463 30.4077 49.1359 30.5182C49.0254 30.6286 48.9634 30.7784 48.9634 30.9346C48.9634 31.0908 49.0254 31.2405 49.1359 31.351C49.2463 31.4614 49.3961 31.5235 49.5523 31.5235H56.2009C56.2283 31.5262 56.2559 31.5262 56.2833 31.5235C56.33 31.5152 56.3755 31.5014 56.4188 31.4822L56.4836 31.4234C56.513 31.4068 56.539 31.3848 56.5601 31.3586C56.6001 31.3079 56.6337 31.2525 56.6602 31.1937V31.1525C56.6883 31.0851 56.7043 31.0134 56.7073 30.9405V24.3331C56.7073 24.1769 56.6453 24.0271 56.5349 23.9167C56.4244 23.8062 56.2746 23.7442 56.1185 23.7442C55.9623 23.7442 55.8125 23.8062 55.702 23.9167C55.5916 24.0271 55.5296 24.1769 55.5296 24.3331V28.8558C52.9789 25.1875 49.2422 22.5102 44.9486 21.2746C40.655 20.0389 36.0668 20.3205 31.9565 22.0718C27.8462 23.8232 24.4649 26.9373 22.3819 30.8899C20.2989 34.8425 19.6415 39.3921 20.5203 43.7727C21.3992 48.1532 23.7606 52.0972 27.2069 54.9405C30.6533 57.7837 34.9741 59.3527 39.4419 59.3831C43.9097 59.4135 48.2514 57.9035 51.7362 55.1073C55.2209 52.3112 57.6358 48.3998 58.5741 44.0315C58.6007 43.8828 58.569 43.7295 58.4857 43.6035C58.4024 43.4774 58.2738 43.3882 58.1266 43.3543Z" fill="white"/>
<path d="M39.5874 28.082C37.248 28.0807 34.9608 28.7732 33.015 30.0719C31.0692 31.3706 29.5523 33.2172 28.6561 35.3781C27.7599 37.539 27.5248 39.9172 27.9803 42.2118C28.4359 44.5064 29.5617 46.6143 31.2155 48.269C32.8692 49.9237 34.9765 51.0507 37.2708 51.5076C39.5651 51.9645 41.9434 51.7307 44.1049 50.8357C46.2663 49.9408 48.1138 48.425 49.4136 46.4799C50.7134 44.5349 51.4072 42.2481 51.4072 39.9087C51.4036 36.7743 50.1574 33.7693 47.9417 31.5523C45.726 29.3354 42.7217 28.0874 39.5874 28.082ZM47.0597 47.2316C46.8348 46.1068 46.3596 45.0471 45.6693 44.1311C44.979 43.215 44.0914 42.4661 43.0722 41.9398C42.0495 42.6483 40.8349 43.0279 39.5908 43.0279C38.3466 43.0279 37.1321 42.6483 36.1093 41.9398C35.0914 42.4643 34.2045 43.211 33.5143 44.1246C32.8241 45.0383 32.3482 46.0955 32.1218 47.218C30.6778 45.7462 29.7007 43.8807 29.3129 41.8556C28.9251 39.8305 29.144 37.736 29.9422 35.8349C30.7403 33.9337 32.0821 32.3106 33.7992 31.1692C35.5163 30.0278 37.5323 29.4189 39.5942 29.4189C41.656 29.4189 43.672 30.0278 45.3891 31.1692C47.1062 32.3106 48.448 33.9337 49.2461 35.8349C50.0443 37.736 50.2632 39.8305 49.8754 41.8556C49.4876 43.8807 48.5105 45.7462 47.0665 47.218L47.0597 47.2316Z" fill="white"/>
<path d="M39.5879 34.0879C38.9161 34.0879 38.2595 34.2871 37.7009 34.6603C37.1424 35.0335 36.707 35.564 36.45 36.1846C36.1929 36.8052 36.1256 37.4882 36.2567 38.147C36.3877 38.8059 36.7112 39.4111 37.1862 39.8861C37.6612 40.3611 38.2664 40.6846 38.9253 40.8156C39.5842 40.9467 40.2671 40.8794 40.8877 40.6224C41.5083 40.3653 42.0388 39.93 42.412 39.3714C42.7852 38.8128 42.9844 38.1562 42.9844 37.4844C42.9844 36.5836 42.6266 35.7197 41.9896 35.0827C41.3526 34.4457 40.4887 34.0879 39.5879 34.0879Z" fill="white"/>
<path d="M57.2896 35.297C57.4259 35.297 57.5591 35.2565 57.6724 35.1808C57.7857 35.1051 57.874 34.9975 57.9261 34.8716C57.9783 34.7457 57.9919 34.6072 57.9654 34.4735C57.9388 34.3399 57.8731 34.2171 57.7768 34.1208C57.6804 34.0244 57.5577 33.9588 57.424 33.9322C57.2904 33.9056 57.1518 33.9192 57.0259 33.9714C56.9 34.0235 56.7924 34.1119 56.7167 34.2252C56.641 34.3385 56.6006 34.4717 56.6006 34.608C56.6006 34.7907 56.6732 34.9659 56.8024 35.0951C56.9316 35.2244 57.1069 35.297 57.2896 35.297Z" fill="white"/>
<path d="M57.29 37.606C57.29 37.7423 57.3304 37.8755 57.4062 37.9888C57.4819 38.1021 57.5895 38.1904 57.7154 38.2425C57.8413 38.2947 57.9798 38.3083 58.1135 38.2818C58.2471 38.2552 58.3699 38.1896 58.4662 38.0932C58.5626 37.9968 58.6282 37.8741 58.6548 37.7404C58.6814 37.6068 58.6677 37.4682 58.6156 37.3423C58.5634 37.2164 58.4751 37.1088 58.3618 37.0331C58.2485 36.9574 58.1153 36.917 57.979 36.917C57.7963 36.917 57.6211 36.9896 57.4918 37.1188C57.3626 37.248 57.29 37.4233 57.29 37.606Z" fill="white"/>
<path d="M58.3726 40.7715C58.2349 40.7715 58.1003 40.8124 57.9859 40.889C57.8715 40.9656 57.7825 41.0745 57.7301 41.2018C57.6776 41.3291 57.6642 41.4692 57.6915 41.6041C57.7188 41.7391 57.7856 41.8629 57.8834 41.9598C57.9811 42.0568 58.1055 42.1225 58.2407 42.1486C58.3759 42.1748 58.5158 42.1602 58.6426 42.1067C58.7695 42.0532 58.8776 41.9632 58.9533 41.8481C59.0289 41.7331 59.0687 41.5982 59.0675 41.4605C59.0659 41.2772 58.992 41.102 58.8619 40.9729C58.7317 40.8439 58.5559 40.7715 58.3726 40.7715Z" fill="white"/>
</g>
</g>
</g>
<defs>
<clipPath id="clip0_2101_38">
<rect width="40" height="40" fill="white" transform="translate(19.875 20)"/>
</clipPath>
<clipPath id="clip1_2101_38">
<rect width="40.0463" height="40.0463" fill="white" transform="translate(19.6826 19.75)"/>
</clipPath>
<clipPath id="clip2_2101_38">
<rect width="40.0447" height="40.0447" fill="white" transform="translate(19.5586 19.8877)"/>
</clipPath>
</defs>
</svg>
