<svg width="26" height="26" viewBox="0 0 26 26" fill="none" xmlns="http://www.w3.org/2000/svg">
<path d="M12.9913 25.5194C9.54018 25.5194 9.13334 25.5012 7.78656 25.4423C6.73631 25.4077 5.69966 25.1942 4.72123 24.811C3.02837 24.1522 1.68977 22.8131 1.03161 21.12C0.663078 20.138 0.464304 19.1005 0.443797 18.0518C0.365234 16.7078 0.365234 16.2673 0.365234 12.8429C0.365234 9.38192 0.383472 8.97789 0.443797 7.63812C0.464753 6.59089 0.66352 5.55483 1.03161 4.57419C1.68905 2.87884 3.02983 1.53857 4.72544 0.88177C5.70556 0.511689 6.74189 0.312396 7.78936 0.292553C9.12913 0.216797 9.56964 0.216797 12.9913 0.216797C16.4705 0.216797 16.8703 0.235035 18.1961 0.292553C19.2462 0.312568 20.2853 0.51184 21.2684 0.88177C22.9635 1.53931 24.304 2.87932 24.9622 4.57419C25.337 5.56912 25.5368 6.62137 25.5528 7.68442C25.6314 9.02839 25.6314 9.4675 25.6314 12.8906C25.6314 16.3136 25.6118 16.7626 25.5528 18.0911C25.532 19.1408 25.3327 20.1792 24.9636 21.162C24.3038 22.8563 22.9632 24.1959 21.2684 24.8545C20.2867 25.2223 19.2498 25.421 18.2017 25.4423C16.8619 25.5194 16.4228 25.5194 12.9913 25.5194ZM12.9436 2.43758C9.51212 2.43758 9.15579 2.45442 7.81602 2.51474C7.01635 2.52534 6.2244 2.67291 5.47458 2.95104C4.36735 3.37473 3.49121 4.24731 3.063 5.3528C2.78272 6.11078 2.63513 6.91139 2.6267 7.71949C2.55235 9.0789 2.55235 9.43523 2.55235 12.8429C2.55235 16.2098 2.56498 16.6181 2.6267 17.9691C2.63926 18.769 2.78677 19.5611 3.063 20.3119C3.49184 21.4167 4.36783 22.2886 5.47458 22.7122C6.22389 22.9922 7.01616 23.1399 7.81602 23.1485C9.17402 23.2271 9.53176 23.2271 12.9436 23.2271C16.3849 23.2271 16.7412 23.2103 18.0698 23.1485C18.87 23.1388 19.6626 22.9912 20.4126 22.7122C21.5132 22.2849 22.3836 21.415 22.8116 20.3147C23.0913 19.5561 23.2389 18.7551 23.2479 17.9466H23.2633C23.3236 16.6054 23.3236 16.2477 23.3236 12.8204C23.3236 9.39314 23.3082 9.0326 23.2479 7.69283C23.2353 6.89381 23.0878 6.10267 22.8116 5.3528C22.3846 4.25093 21.514 3.37934 20.4126 2.95104C19.6627 2.6715 18.8701 2.52389 18.0698 2.51474C16.7132 2.43758 16.3583 2.43758 12.9436 2.43758ZM12.9913 19.3228C10.3679 19.3245 8.00179 17.7456 6.99653 15.3224C5.99128 12.8992 6.54486 10.1091 8.39911 8.25324C10.2534 6.39739 13.043 5.84139 15.4671 6.84455C17.8911 7.8477 19.4721 10.2124 19.4727 12.8359C19.4688 16.4147 16.5702 19.3159 12.9913 19.3228ZM12.9913 8.62436C10.6669 8.62436 8.78261 10.5087 8.78261 12.833C8.78261 15.1574 10.6669 17.0417 12.9913 17.0417C15.3157 17.0417 17.2 15.1574 17.2 12.833C17.1946 10.5109 15.3135 8.62976 12.9913 8.62436ZM19.7252 7.6241C18.8911 7.62099 18.217 6.94311 18.2185 6.10898C18.2201 5.27484 18.8967 4.59946 19.7308 4.59946C20.565 4.59946 21.2416 5.27483 21.2431 6.10896C21.2435 6.5114 21.0836 6.89742 20.7988 7.18173C20.514 7.46603 20.1276 7.62521 19.7252 7.6241Z" fill="#9DA28C"/>
</svg>
