<svg width="20" height="15" viewBox="0 0 20 15" fill="none" xmlns="http://www.w3.org/2000/svg">
<path d="M0.742424 6.69484L6.9431 0.569842C7.11016 0.410454 7.33392 0.322258 7.56617 0.324252C7.79843 0.326245 8.0206 0.418268 8.18484 0.580501C8.34908 0.742733 8.44224 0.962193 8.44425 1.19162C8.44627 1.42104 8.35699 1.64206 8.19563 1.80709L3.50704 6.43847H19.0849C19.3198 6.43847 19.5451 6.53065 19.7113 6.69475C19.8774 6.85884 19.9707 7.0814 19.9707 7.31347C19.9707 7.54553 19.8774 7.76809 19.7113 7.93218C19.5451 8.09628 19.3198 8.18847 19.0849 8.18847H3.50704L8.19563 12.8198C8.28023 12.9006 8.34772 12.9971 8.39414 13.1039C8.44057 13.2106 8.465 13.3254 8.46602 13.4416C8.46705 13.5578 8.44463 13.673 8.40009 13.7805C8.35556 13.8881 8.28978 13.9858 8.20661 14.0679C8.12344 14.1501 8.02454 14.2151 7.91567 14.2591C7.80681 14.3031 7.69017 14.3252 7.57255 14.3242C7.45493 14.3232 7.3387 14.299 7.23063 14.2532C7.12255 14.2073 7.02481 14.1407 6.9431 14.0571L0.742424 7.93209C0.576361 7.768 0.483072 7.54548 0.483072 7.31347C0.483072 7.08145 0.576361 6.85893 0.742424 6.69484Z" fill="white"/>
</svg>
