<svg width="115" height="25" viewBox="0 0 115 25" fill="none" xmlns="http://www.w3.org/2000/svg">
<path d="M12.8497 22.4939C10.8894 23.7843 8.25771 24.252 7.64736 24.1922H0L0 0.267578L6.67438 0.267578C7.79814 0.267578 11.2053 1.65299 10.6919 4.07569L9.50354 7.4724C14.2894 11.2172 15.0936 13.8931 15.0936 16.8819C15.0936 18.7385 15.029 20.0255 12.8425 22.5079L12.8497 22.4939ZM7.02982 3.34782L2.97996 3.34782L2.97996 8.31982C4.20066 7.7537 7.31704 6.27336 7.31704 4.54335C7.31704 3.94559 7.02982 3.60099 7.02982 3.34782ZM6.7067 9.51535L3.01227 11.7165L3.01227 21.3652H7.41398C9.60047 21.3968 11.9126 19.4136 11.9126 16.8679C11.9126 14.2553 9.79077 11.2032 6.7067 9.5048" fill="white"/>
<path d="M18.7832 0L29.6116 0V2.98882L21.7057 2.98882V4.62388L33.1121 4.62388V7.29976L21.7057 7.29976L21.7057 21.4562L30.8287 21.4562V24.0688L18.7832 24.0688L18.7832 0Z" fill="white"/>
<path d="M47.9852 24.0694L47.12 21.4885L39.25 21.4885L38.575 24.0694H35.6489L42.0433 0.816406L44.5565 0.848051L50.9795 24.0554L47.9852 24.0694ZM46.2834 18.0285H39.986L39.7311 19.1607H46.6388L46.2834 18.0285ZM43.1024 6.94877L40.8226 15.6972L45.6731 15.6972L43.1024 6.94877Z" fill="white"/>
<path d="M52.7373 0.158203L67.8704 0.158203V3.17867L62.1188 3.17867V24.0688H58.6828V3.17867L52.7373 3.17867V0.158203Z" fill="white"/>
<path d="M82.0027 23.8484C82.035 24.0383 82.0997 16.9882 82.0027 16.8651C82.0027 16.8651 77.0589 10.1842 74.3913 6.79453V23.88H71.2749V0.345703L73.684 0.345703L82.0027 11.5766C81.9417 11.5766 82.0027 4.12217 82.0027 0.377348L84.7673 0.345703V23.8484L82.0027 23.8484Z" fill="white"/>
<path d="M94.0794 0.470703L91.0923 0.470703V24.0683H94.0794V0.470703Z" fill="white"/>
<path d="M111.429 24.1328L103.591 8.9355L102.015 10.4791V24.0062H98.8374V0.598449L102.176 0.598449V6.82926L108.793 0.535156L112.071 0.535156L106.352 6.73432L114.707 24.1328H111.429Z" fill="white"/>
</svg>
