<svg width="143" height="56" viewBox="0 0 143 56" fill="none" xmlns="http://www.w3.org/2000/svg">
<path d="M12.8497 23.4934C10.8894 24.7839 8.25771 25.2515 7.64736 25.1917H0L0 1.26709L6.67438 1.26709C7.79814 1.26709 11.2053 2.6525 10.6919 5.0752L9.50354 8.47191C14.2894 12.2167 15.0936 14.8926 15.0936 17.8814C15.0936 19.738 15.029 21.025 12.8425 23.5074L12.8497 23.4934ZM7.02982 4.34733L2.97996 4.34733L2.97996 9.31933C4.20066 8.75321 7.31704 7.27287 7.31704 5.54287C7.31704 4.9451 7.02982 4.6005 7.02982 4.34733ZM6.7067 10.5149L3.01227 12.716L3.01227 22.3647H7.41398C9.60047 22.3963 11.9126 20.4131 11.9126 17.8674C11.9126 15.2548 9.79077 12.2027 6.7067 10.5043" fill="#212427"/>
<path d="M18.7832 1L29.6116 1V3.98882L21.7057 3.98882V5.62388L33.1121 5.62388V8.29976L21.7057 8.29976L21.7057 22.4562L30.8287 22.4562V25.0688L18.7832 25.0688L18.7832 1Z" fill="#212427"/>
<path d="M47.9857 25.0704L47.1204 22.4895L39.2505 22.4895L38.5755 25.0704H35.6494L42.0437 1.81738L44.557 1.84903L50.98 25.0564L47.9857 25.0704ZM46.2839 19.0295H39.9865L39.7316 20.1617H46.6393L46.2839 19.0295ZM43.1029 7.94974L40.823 16.6982H45.6736L43.1029 7.94974Z" fill="#212427"/>
<path d="M52.7373 1.15918L67.8704 1.15918V4.17965H62.1188V25.0698H58.6828V4.17965L52.7373 4.17965V1.15918Z" fill="#212427"/>
<path d="M82.0022 24.8489C82.0346 25.0388 82.0992 17.9887 82.0022 17.8656C82.0022 17.8656 77.0584 11.1847 74.3908 7.79502V24.8805H71.2744V1.34619L73.6835 1.34619L82.0022 12.5771C81.9412 12.5771 82.0022 5.12266 82.0022 1.37784L84.7668 1.34619V24.8489L82.0022 24.8489Z" fill="#212427"/>
<path d="M94.0799 1.47119L91.0928 1.47119V25.0688H94.0799V1.47119Z" fill="#212427"/>
<path d="M111.428 25.1328L103.59 9.9355L102.014 11.4791V25.0062H98.8369V1.59845L102.176 1.59845V7.82926L108.793 1.53516L112.071 1.53516L106.351 7.73432L114.706 25.1328H111.428Z" fill="#212427"/>
<path d="M106.429 43.8714L116.596 48.8003L116.596 38.9424L106.429 43.8714Z" fill="#6B705A"/>
<path d="M76.8412 50.5259L65.7332 55.0361L87.9492 55.0361L76.8412 50.5259Z" fill="#FAA61A"/>
<path d="M39.1674 50.6201L28.0556 55.1304L50.2754 55.1304L39.1674 50.6201Z" fill="#FAA61A"/>
<path d="M39.1674 37.1602L50.2754 32.6462L28.0556 32.6463L39.1674 37.1602Z" fill="#ED9E1C"/>
<path d="M76.8412 37.0659L87.9492 32.552L65.7332 32.552L76.8412 37.0659Z" fill="#ED9E1C"/>
<path d="M10.167 44.0623L0.000290871 48.9912L0.000289962 39.1333L10.167 44.0623Z" fill="#6B705A"/>
<path d="M94.7744 34.4982L73.6234 43.8823L73.8147 43.9667L73.6234 44.0512L94.7744 53.439L99.1621 51.4924L82.2038 43.9667L99.1621 36.4448L94.7744 34.4982Z" fill="#6B705A"/>
<path d="M110.323 34.3024L89.1721 43.7746L89.3596 43.7746L89.1721 43.7746L110.323 53.2432L114.707 51.2966L97.7487 43.7746L114.707 36.249L110.323 34.3024Z" fill="#C74C00"/>
<path d="M5.35978 34.3024L26.5107 43.7746L26.3195 43.7746L26.5107 43.7746L5.35978 53.2432L0.975832 51.2966L17.9303 43.7746L0.97583 36.249L5.35978 34.3024Z" fill="#C74C00"/>
<path d="M21.8568 34.4982L43.0078 43.8823L42.8203 43.9667L43.0078 44.0512L21.8568 53.439L17.4729 51.4924L34.4274 43.9667L17.4729 36.4448L21.8568 34.4982Z" fill="#6B705A"/>
<path d="M58.3305 33.4272L82.0879 43.9683L58.3305 54.5093L34.5769 43.9683L58.3305 33.4272ZM73.7737 43.9683L58.3305 37.1147L42.8911 43.9683L58.3305 50.8181L73.7737 43.9683Z" fill="#FAA61A"/>
<path d="M123.18 2.24219V3.51172H124.594C124.846 3.51172 125.051 3.46484 125.207 3.37109C125.366 3.27474 125.445 3.10547 125.445 2.86328C125.445 2.59505 125.341 2.41797 125.133 2.33203C124.953 2.27214 124.724 2.24219 124.445 2.24219H123.18ZM123.18 4.46484V6L124.594 6C124.846 6 125.043 5.96615 125.184 5.89844C125.439 5.77344 125.566 5.53385 125.566 5.17969C125.566 4.88021 125.443 4.67448 125.195 4.5625C125.057 4.5 124.863 4.46745 124.613 4.46484L123.18 4.46484ZM124.828 1.24219C125.534 1.2526 126.034 1.45703 126.328 1.85547C126.505 2.10026 126.594 2.39323 126.594 2.73438C126.594 3.08594 126.505 3.36849 126.328 3.58203C126.229 3.70182 126.083 3.8112 125.891 3.91016C126.185 4.01693 126.406 4.1862 126.555 4.41797C126.706 4.64974 126.781 4.93099 126.781 5.26172C126.781 5.60286 126.695 5.90885 126.523 6.17969C126.414 6.35938 126.277 6.51042 126.113 6.63281C125.928 6.77344 125.71 6.86979 125.457 6.92188C125.207 6.97396 124.935 7 124.641 7L122.031 7V1.24219L124.828 1.24219ZM132.051 2.26172L129.004 2.26172V3.48438L131.801 3.48438V4.48438L129.004 4.48438V5.96484L132.191 5.96484V7L127.828 7V1.24219L132.051 1.24219V2.26172ZM137.312 1.24219V2.26172L135.59 2.26172V7L134.379 7V2.26172L132.648 2.26172V1.24219L137.312 1.24219ZM139 4.82422L140.461 4.82422L139.742 2.55859L139 4.82422ZM139.074 1.24219L140.434 1.24219L142.473 7H141.168L140.797 5.81641L138.676 5.81641L138.277 7H137.02L139.074 1.24219Z" fill="#212427"/>
</svg>
