<svg width="115" height="55" viewBox="0 0 115 55" fill="none" xmlns="http://www.w3.org/2000/svg">
<path d="M13.096 23.2719C11.1744 24.5624 8.59469 25.03 7.99639 24.9702H0.5L0.5 1.04559L7.04262 1.04559C8.1442 1.04559 11.4841 2.431 10.9809 4.85371L9.81593 8.25042C14.5073 11.9952 15.2957 14.6711 15.2957 17.6599C15.2957 19.5165 15.2323 20.8035 13.089 23.286L13.096 23.2719ZM7.39105 4.12584L3.42113 4.12584L3.42113 9.09783C4.61774 8.53171 7.6726 7.05137 7.6726 5.32137C7.6726 4.7236 7.39105 4.37901 7.39105 4.12584ZM7.0743 10.2934L3.45281 12.4945L3.45281 22.1432H7.76762C9.91095 22.1748 12.1775 20.1916 12.1775 17.6459C12.1775 15.0333 10.0975 11.9812 7.0743 10.2828" fill="#000"/>
<path d="M18.9121 0.778381L29.5267 0.778381V3.7672L21.7769 3.7672V5.40227L32.9581 5.40227V8.07814L21.7769 8.07814L21.7769 22.2346L30.7198 22.2346V24.8472L18.9121 24.8472L18.9121 0.778381Z" fill="#000"/>
<path d="M47.5381 24.8486L46.6899 22.2677L38.9753 22.2677L38.3136 24.8486H35.4453L41.7134 1.59558L44.177 1.62723L50.4733 24.8346L47.5381 24.8486ZM45.8699 18.8077H39.6968L39.4469 19.9399H46.2183L45.8699 18.8077ZM42.7517 7.72794L40.5168 16.4764H45.2716L42.7517 7.72794Z" fill="#000"/>
<path d="M52.1953 0.937561L67.0297 0.937561V3.95803L61.3916 3.95803V24.8481H58.0235V3.95803L52.1953 3.95803V0.937561Z" fill="#000"/>
<path d="M80.8832 24.6271C80.9149 24.817 80.9783 17.7669 80.8832 17.6439C80.8832 17.6439 76.037 10.963 73.422 7.57327V24.6588H70.3672V1.12445L72.7287 1.12445L80.8832 12.3554C80.8234 12.3554 80.8832 4.90092 80.8832 1.1561L83.5932 1.12445V24.6271L80.8832 24.6271Z" fill="#000"/>
<path d="M92.7231 1.24951L89.7949 1.24951V24.8471H92.7231V1.24951Z" fill="#000"/>
<path d="M109.729 24.9111L102.046 9.71383L100.501 11.2575V24.7845H97.3867V1.37677L100.66 1.37677V7.60758L107.146 1.31348L110.359 1.31348L104.753 7.51265L112.943 24.9111H109.729Z" fill="#000"/>
<path d="M104.827 43.6495L114.793 48.5784L114.793 38.7206L104.827 43.6495Z" fill="#6B705A"/>
<path d="M75.8242 50.3044L64.9354 54.8146L86.7129 54.8146L75.8242 50.3044Z" fill="#FAA61A"/>
<path d="M38.8925 50.3985L28.0001 54.9087L49.7812 54.9087L38.8925 50.3985Z" fill="#FAA61A"/>
<path d="M38.8925 36.9385L49.7812 32.4246L28.0001 32.4246L38.8925 36.9385Z" fill="#ED9E1C"/>
<path d="M75.8242 36.8445L86.7129 32.3306L64.9354 32.3306L75.8242 36.8445Z" fill="#ED9E1C"/>
<path d="M10.4648 43.8407L0.498846 48.7696L0.498845 38.9117L10.4648 43.8407Z" fill="#6B705A"/>
<path d="M93.402 34.2767L72.6686 43.6608L72.8561 43.7452L72.6686 43.8297L93.402 53.2175L97.7031 51.2709L81.0796 43.7452L97.7031 36.2233L93.402 34.2767Z" fill="#6B705A"/>
<path d="M108.644 34.0809L87.9106 43.5531L88.0944 43.5531L87.9106 43.5531L108.644 53.0217L112.941 51.0751L96.3179 43.5531L112.941 36.0275L108.644 34.0809Z" fill="#C74C00"/>
<path d="M5.75291 34.0809L26.4863 43.5531L26.2988 43.5531L26.4863 43.5531L5.75292 53.0217L1.45551 51.0751L18.0753 43.5531L1.45551 36.0275L5.75291 34.0809Z" fill="#C74C00"/>
<path d="M21.9248 34.2767L42.6582 43.6608L42.4744 43.7452L42.6582 43.8297L21.9248 53.2175L17.6274 51.2709L34.2472 43.7452L17.6274 36.2233L21.9248 34.2767Z" fill="#6B705A"/>
<path d="M57.6784 33.2054L80.9668 43.7464L57.6784 54.2874L34.3938 43.7464L57.6784 33.2054ZM72.8168 43.7464L57.6784 36.8929L42.5438 43.7464L57.6784 50.5962L72.8168 43.7464Z" fill="#FAA61A"/>
</svg>
