<svg width="117" height="55" viewBox="0 0 117 55" fill="none" xmlns="http://www.w3.org/2000/svg">
<path d="M12.8497 22.4934C10.8894 23.7839 8.25771 24.2515 7.64736 24.1917H0L0 0.26709L6.67438 0.26709C7.79814 0.26709 11.2053 1.6525 10.6919 4.0752L9.50354 7.47191C14.2894 11.2167 15.0936 13.8926 15.0936 16.8814C15.0936 18.738 15.029 20.025 12.8425 22.5074L12.8497 22.4934ZM7.02982 3.34733L2.97996 3.34733L2.97996 8.31933C4.20066 7.75321 7.31704 6.27287 7.31704 4.54287C7.31704 3.9451 7.02982 3.6005 7.02982 3.34733ZM6.7067 9.51486L3.01227 11.716L3.01227 21.3647H7.41398C9.60047 21.3963 11.9126 19.4131 11.9126 16.8674C11.9126 14.2548 9.79077 11.2027 6.7067 9.50431" fill="#212427"/>
<path d="M18.7832 0L29.6116 0V2.98882L21.7057 2.98882V4.62388L33.1121 4.62388V7.29976L21.7057 7.29976L21.7057 21.4562L30.8287 21.4562V24.0688L18.7832 24.0688L18.7832 0Z" fill="#212427"/>
<path d="M47.9852 24.0702L47.12 21.4892L39.25 21.4892L38.575 24.0702H35.6489L42.0433 0.817139L44.5565 0.848784L50.9795 24.0561L47.9852 24.0702ZM46.2834 18.0292H39.986L39.7311 19.1615H46.6388L46.2834 18.0292ZM43.1024 6.9495L40.8226 15.698L45.6731 15.698L43.1024 6.9495Z" fill="#212427"/>
<path d="M52.7373 0.15918L67.8704 0.15918V3.17965L62.1188 3.17965V24.0698H58.6828V3.17965L52.7373 3.17965V0.15918Z" fill="#212427"/>
<path d="M82.0025 23.8486C82.0348 24.0385 82.0994 16.9884 82.0025 16.8653C82.0025 16.8653 77.0586 10.1844 74.391 6.79477V23.8803H71.2747V0.345947L73.6838 0.345947L82.0025 11.5769C81.9414 11.5769 82.0025 4.12241 82.0025 0.377592L84.767 0.345947V23.8486L82.0025 23.8486Z" fill="#212427"/>
<path d="M94.0794 0.471191L91.0923 0.471191V24.0688H94.0794V0.471191Z" fill="#212427"/>
<path d="M111.428 24.1328L103.591 8.9355L102.015 10.4791V24.0062H98.8372V0.598449L102.176 0.598449V6.82926L108.793 0.535156L112.071 0.535156L106.352 6.73432L114.706 24.1328H111.428Z" fill="#212427"/>
<path d="M106.428 42.8711L116.595 47.8L116.595 37.9422L106.428 42.8711Z" fill="#6B705A"/>
<path d="M76.841 49.5261L65.733 54.0364L87.949 54.0364L76.841 49.5261Z" fill="#FAA61A"/>
<path d="M39.1671 49.6201L28.0554 54.1304L50.2751 54.1304L39.1671 49.6201Z" fill="#FAA61A"/>
<path d="M39.1671 36.1602L50.2751 31.6462L28.0554 31.6463L39.1671 36.1602Z" fill="#ED9E1C"/>
<path d="M76.841 36.0662L87.949 31.5523L65.733 31.5523L76.841 36.0662Z" fill="#ED9E1C"/>
<path d="M10.1665 43.0623L-0.000197411 47.9912L-0.00019832 38.1333L10.1665 43.0623Z" fill="#6B705A"/>
<path d="M94.7734 33.4984L73.6225 42.8825L73.8137 42.967L73.6225 43.0515L94.7734 52.4392L99.1611 50.4926L82.2029 42.967L99.1611 35.445L94.7734 33.4984Z" fill="#6B705A"/>
<path d="M110.322 33.3026L89.1714 42.7748L89.3589 42.7748L89.1714 42.7748L110.322 52.2434L114.706 50.2968L97.748 42.7748L114.706 35.2492L110.322 33.3026Z" fill="#C74C00"/>
<path d="M5.35978 33.3026L26.5107 42.7748L26.3195 42.7748L26.5107 42.7748L5.35978 52.2434L0.975832 50.2968L17.9303 42.7748L0.97583 35.2492L5.35978 33.3026Z" fill="#C74C00"/>
<path d="M21.8563 33.4984L43.0073 42.8825L42.8198 42.967L43.0073 43.0515L21.8563 52.4392L17.4724 50.4926L34.4269 42.967L17.4724 35.445L21.8563 33.4984Z" fill="#6B705A"/>
<path d="M58.33 32.427L82.0874 42.968L58.33 53.509L34.5764 42.968L58.33 32.427ZM73.7733 42.968L58.33 36.1145L42.8906 42.968L58.33 49.8178L73.7733 42.968Z" fill="#FAA61A"/>
</svg>
