<svg width="142" height="55" viewBox="0 0 142 55" fill="none" xmlns="http://www.w3.org/2000/svg">
<path d="M13.596 22.4939C11.6744 23.7843 9.09469 24.252 8.49639 24.1922H1L1 0.267578L7.54261 0.267578C8.6442 0.267578 11.9841 1.65299 11.4809 4.07569L10.3159 7.4724C15.0073 11.2172 15.7957 13.8931 15.7957 16.8819C15.7957 18.7385 15.7323 20.0255 13.589 22.5079L13.596 22.4939ZM7.89105 3.34782L3.92113 3.34782L3.92113 8.31982C5.11774 7.7537 8.1726 6.27336 8.1726 4.54335C8.1726 3.94559 7.89105 3.60099 7.89105 3.34782ZM7.5743 9.51535L3.9528 11.7165L3.9528 21.3652H8.26762C10.4109 21.3968 12.6775 19.4136 12.6775 16.8679C12.6775 14.2553 10.5975 11.2032 7.5743 9.5048" fill="white"/>
<path d="M19.4121 0L30.0267 0V2.98882L22.2769 2.98882V4.62388L33.4581 4.62388V7.29976L22.2769 7.29976L22.2769 21.4562L31.2198 21.4562V24.0688L19.4121 24.0688L19.4121 0Z" fill="white"/>
<path d="M48.0381 24.0694L47.1899 21.4885L39.4753 21.4885L38.8136 24.0694H35.9453L42.2134 0.816406L44.677 0.848051L50.9733 24.0554L48.0381 24.0694ZM46.3699 18.0285H40.1968L39.9469 19.1607H46.7183L46.3699 18.0285ZM43.2517 6.94877L41.0168 15.6972L45.7716 15.6972L43.2517 6.94877Z" fill="white"/>
<path d="M52.6953 0.158203L67.5297 0.158203V3.17867L61.8916 3.17867V24.0688H58.5235V3.17867L52.6953 3.17867V0.158203Z" fill="white"/>
<path d="M81.3832 23.8484C81.4149 24.0383 81.4783 16.9882 81.3832 16.8651C81.3832 16.8651 76.537 10.1842 73.922 6.79453V23.88H70.8672V0.345703L73.2287 0.345703L81.3832 11.5766C81.3234 11.5766 81.3832 4.12217 81.3832 0.377348L84.0932 0.345703V23.8484L81.3832 23.8484Z" fill="white"/>
<path d="M93.2231 0.470703L90.2949 0.470703V24.0683H93.2231V0.470703Z" fill="white"/>
<path d="M110.229 24.1328L102.546 8.9355L101.001 10.4791V24.0062H97.8867V0.598449L101.16 0.598449V6.82926L107.646 0.535156L110.859 0.535156L105.253 6.73432L113.443 24.1328H110.229Z" fill="white"/>
<path d="M105.327 42.8718L115.293 47.8008L115.293 37.9429L105.327 42.8718Z" fill="#6B705A"/>
<path d="M76.3242 49.5269L65.4354 54.0371L87.2129 54.0371L76.3242 49.5269Z" fill="#FAA61A"/>
<path d="M39.3925 49.6206L28.5001 54.1309L50.2812 54.1309L39.3925 49.6206Z" fill="#FAA61A"/>
<path d="M39.3925 36.1602L50.2812 31.6462L28.5001 31.6463L39.3925 36.1602Z" fill="#ED9E1C"/>
<path d="M76.3242 36.0664L87.2129 31.5525L65.4354 31.5525L76.3242 36.0664Z" fill="#ED9E1C"/>
<path d="M10.9648 43.0632L0.998846 47.9922L0.998845 38.1343L10.9648 43.0632Z" fill="#6B705A"/>
<path d="M93.902 33.4987L73.1686 42.8827L73.3561 42.9672L73.1686 43.0517L93.902 52.4395L98.2031 50.4929L81.5796 42.9672L98.2031 35.4453L93.902 33.4987Z" fill="#6B705A"/>
<path d="M109.144 33.3033L88.4106 42.7756L88.5944 42.7756L88.4106 42.7756L109.144 52.2441L113.441 50.2975L96.8179 42.7756L113.441 35.2499L109.144 33.3033Z" fill="#C74C00"/>
<path d="M6.25291 33.3033L26.9863 42.7756L26.7988 42.7756L26.9863 42.7756L6.25292 52.2441L1.95551 50.2975L18.5753 42.7756L1.95551 35.25L6.25291 33.3033Z" fill="#C74C00"/>
<path d="M22.4248 33.4987L43.1582 42.8827L42.9744 42.9672L43.1582 43.0517L22.4248 52.4395L18.1274 50.4929L34.7472 42.9672L18.1274 35.4453L22.4248 33.4987Z" fill="#6B705A"/>
<path d="M58.1784 32.4277L81.4668 42.9687L58.1784 53.5098L34.8938 42.9687L58.1784 32.4277ZM73.3168 42.9687L58.1784 36.1152L43.0438 42.9687L58.1784 49.8186L73.3168 42.9687Z" fill="#FAA61A"/>
<path d="M122.18 2.24219V3.51172H123.594C123.846 3.51172 124.051 3.46484 124.207 3.37109C124.366 3.27474 124.445 3.10547 124.445 2.86328C124.445 2.59505 124.341 2.41797 124.133 2.33203C123.953 2.27214 123.724 2.24219 123.445 2.24219H122.18ZM122.18 4.46484V6L123.594 6C123.846 6 124.043 5.96615 124.184 5.89844C124.439 5.77344 124.566 5.53385 124.566 5.17969C124.566 4.88021 124.443 4.67448 124.195 4.5625C124.057 4.5 123.863 4.46745 123.613 4.46484L122.18 4.46484ZM123.828 1.24219C124.534 1.2526 125.034 1.45703 125.328 1.85547C125.505 2.10026 125.594 2.39323 125.594 2.73438C125.594 3.08594 125.505 3.36849 125.328 3.58203C125.229 3.70182 125.083 3.8112 124.891 3.91016C125.185 4.01693 125.406 4.1862 125.555 4.41797C125.706 4.64974 125.781 4.93099 125.781 5.26172C125.781 5.60286 125.695 5.90885 125.523 6.17969C125.414 6.35938 125.277 6.51042 125.113 6.63281C124.928 6.77344 124.71 6.86979 124.457 6.92188C124.207 6.97396 123.935 7 123.641 7L121.031 7V1.24219L123.828 1.24219ZM131.051 2.26172L128.004 2.26172V3.48438L130.801 3.48438V4.48438L128.004 4.48438V5.96484L131.191 5.96484V7L126.828 7V1.24219L131.051 1.24219V2.26172ZM136.312 1.24219V2.26172L134.59 2.26172V7L133.379 7V2.26172L131.648 2.26172V1.24219L136.312 1.24219ZM138 4.82422L139.461 4.82422L138.742 2.55859L138 4.82422ZM138.074 1.24219L139.434 1.24219L141.473 7H140.168L139.797 5.81641L137.676 5.81641L137.277 7H136.02L138.074 1.24219Z" fill="white"/>
</svg>
