<svg width="20" height="15" viewBox="0 0 20 15" fill="none" xmlns="http://www.w3.org/2000/svg">
<path d="M19.1108 6.69435L12.9858 0.569354C12.8208 0.409965 12.5998 0.32177 12.3703 0.323764C12.1409 0.325757 11.9215 0.41778 11.7592 0.580012C11.597 0.742244 11.505 0.961705 11.503 1.19113C11.501 1.42055 11.5892 1.64158 11.7486 1.8066L16.3799 6.43798H0.992188C0.760123 6.43798 0.537563 6.53017 0.373469 6.69426C0.209375 6.85835 0.117188 7.08091 0.117188 7.31298C0.117188 7.54504 0.209375 7.7676 0.373469 7.9317C0.537563 8.09579 0.760123 8.18798 0.992188 8.18798H16.3799L11.7486 12.8194C11.665 12.9001 11.5983 12.9966 11.5525 13.1034C11.5066 13.2101 11.4825 13.3249 11.4815 13.4411C11.4805 13.5573 11.5026 13.6725 11.5466 13.7801C11.5906 13.8876 11.6556 13.9853 11.7377 14.0674C11.8199 14.1496 11.9176 14.2146 12.0251 14.2586C12.1326 14.3026 12.2479 14.3247 12.364 14.3237C12.4802 14.3227 12.595 14.2985 12.7018 14.2527C12.8085 14.2068 12.9051 14.1402 12.9858 14.0566L19.1108 7.9316C19.2749 7.76752 19.367 7.545 19.367 7.31298C19.367 7.08096 19.2749 6.85844 19.1108 6.69435Z" fill="white"/>
</svg>
