<svg width="11" height="18" viewBox="0 0 11 18" fill="none" xmlns="http://www.w3.org/2000/svg">
<path fill-rule="evenodd" clip-rule="evenodd" d="M5.48191 17.7109C5.32039 17.7109 5.16548 17.6443 5.05127 17.5257C4.93705 17.4071 4.87289 17.2462 4.87289 17.0784L4.87289 2.16046L1.04093 6.14137C0.926571 6.26014 0.771468 6.32686 0.609742 6.32686C0.448015 6.32686 0.292913 6.26014 0.178555 6.14137C0.0641975 6.02261 -4.76837e-05 5.86153 -4.76837e-05 5.69357C-4.76837e-05 5.52561 0.0641975 5.36453 0.178555 5.24576L5.05072 0.185816C5.1073 0.126913 5.1745 0.080183 5.24849 0.048296C5.32248 0.0164108 5.4018 -1.90735e-06 5.48191 -1.90735e-06C5.56202 -1.90735e-06 5.64134 0.0164108 5.71533 0.048296C5.78932 0.080183 5.85652 0.126913 5.9131 0.185816L10.7853 5.24576C10.8996 5.36453 10.9639 5.52561 10.9639 5.69357C10.9639 5.86153 10.8996 6.02261 10.7853 6.14137C10.6709 6.26014 10.5158 6.32686 10.3541 6.32686C10.1924 6.32686 10.0372 6.26014 9.92289 6.14137L6.09093 2.16046L6.09093 17.0784C6.09093 17.2462 6.02677 17.4071 5.91255 17.5257C5.79834 17.6443 5.64343 17.7109 5.48191 17.7109Z" fill="#212427"/>
</svg>
