<svg width="29" height="29" viewBox="0 0 29 29" fill="none" xmlns="http://www.w3.org/2000/svg">
<path d="M14.8319 0.695312C7.02343 0.695312 0.693359 7.02538 0.693359 14.8339C0.693359 22.6424 7.02343 28.9725 14.8319 28.9725C22.6404 28.9725 28.9705 22.6424 28.9705 14.8339C28.9705 7.02538 22.6404 0.695312 14.8319 0.695312ZM23.1832 10.8676C22.2408 16.3712 16.974 21.0318 15.3891 22.0968C13.8042 23.1617 12.3598 21.671 11.8348 20.5428C11.2348 19.257 9.43705 12.2883 8.96607 11.7106C8.49489 11.134 7.08123 12.2883 7.08123 12.2883L6.39732 11.3565C6.39732 11.3565 9.26626 7.80543 11.4499 7.36076C13.7652 6.89004 13.7619 11.0451 14.3188 13.3527C14.857 15.5839 15.2197 16.8601 15.6896 16.8601C16.1608 16.8601 17.0604 15.6164 18.0445 13.7085C19.0309 11.7994 18.0017 10.1117 16.0751 11.3116C16.8442 6.51718 24.1256 5.36512 23.1832 10.8676Z" fill="#9DA28C"/>
</svg>
