<svg width="43" height="58" viewBox="0 0 43 58" fill="none" xmlns="http://www.w3.org/2000/svg">
<path d="M42.6492 28.3422L22.9823 0.794959C22.8058 0.549524 22.5738 0.349506 22.3053 0.211321C22.0368 0.0731358 21.7394 0.000717173 21.4376 0H21.4336C20.8189 0 20.2478 0.298107 19.8889 0.802904L0.348911 28.3422C0.147784 28.6281 0.028689 28.9638 0.00456661 29.3127C-0.0195558 29.6617 0.0522171 30.0106 0.212087 30.3216C0.537291 30.9576 1.19167 31.3511 1.90354 31.3511H11.0925V56.0921C11.0925 57.1494 11.9452 58 12.9922 58H30.0059C31.0569 58 31.9056 57.1494 31.9056 56.0921V31.3511H41.1025C41.451 31.3503 41.7927 31.2536 42.0901 31.0714C42.3875 30.8892 42.6292 30.6286 42.7888 30.3181C42.9485 30.0075 43.0199 29.659 42.9952 29.3105C42.9706 28.962 42.8509 28.6271 42.6492 28.3422Z" fill="#FAA61A"/>
</svg>
