<svg width="29" height="20" viewBox="0 0 29 20" fill="none" xmlns="http://www.w3.org/2000/svg">
<path d="M14.9193 19.6715H14.8912C14.8042 19.6715 6.10206 19.6547 3.90653 19.0585C2.69923 18.7332 1.75638 17.7899 1.43182 16.5824C1.03701 14.3551 0.846364 12.0964 0.862244 9.83444C0.852044 7.56878 1.04785 5.30688 1.44725 3.07668C1.78073 1.8681 2.71944 0.92036 3.92477 0.575319C6.05998 0.0141602 14.5223 0.0141602 14.8814 0.0141602H14.9109C14.9992 0.0141602 23.7238 0.0309949 25.8969 0.627226C27.1017 0.954114 28.0426 1.89558 28.3688 3.10053C28.7762 5.33611 28.9674 7.60571 28.9398 9.87793C28.9497 12.1408 28.7534 14.4 28.3534 16.6273C28.0247 17.8332 27.0812 18.7746 25.8745 19.1006C23.7421 19.6659 15.2784 19.6715 14.9193 19.6715ZM12.1135 5.63276L12.1065 14.0501L19.4184 9.84145L12.1135 5.63276Z" fill="#9DA28C"/>
</svg>
