<svg width="29" height="29" viewBox="0 0 29 29" fill="none" xmlns="http://www.w3.org/2000/svg">
<path d="M0.0712891 14.9009C0.0729274 21.8277 5.10988 27.7255 11.9511 28.8111V18.9702H8.37882V14.9009H11.9553V11.8032C11.7954 10.3353 12.2968 8.87243 13.3234 7.81123C14.35 6.75003 15.7955 6.20053 17.2679 6.31175C18.3247 6.32881 19.3788 6.42294 20.4219 6.59336V10.0558H18.6421C18.0294 9.97552 17.4134 10.1779 16.9676 10.6058C16.5219 11.0338 16.2946 11.6411 16.3498 12.2566V14.9009H20.2515L19.6278 18.9716H16.3498V28.8111C23.7484 27.6418 28.9366 20.8848 28.1557 13.4352C27.3748 5.9856 20.8982 0.451321 13.418 0.841703C5.93776 1.23209 0.0724781 7.41046 0.0712891 14.9009Z" fill="#212427"/>
</svg>
