<svg width="27" height="26" viewBox="0 0 27 26" fill="none" xmlns="http://www.w3.org/2000/svg">
<path d="M13.4264 25.6271C9.96259 25.6271 9.55425 25.6088 8.20252 25.5497C7.14841 25.515 6.10794 25.3007 5.12592 24.9161C3.42683 24.2548 2.08331 22.9108 1.42273 21.2115C1.05285 20.2259 0.85334 19.1846 0.832757 18.1321C0.753906 16.7831 0.753906 16.341 0.753906 12.9039C0.753906 9.43027 0.772211 9.02475 0.832757 7.68006C0.85379 6.62897 1.05329 5.58911 1.42273 4.60487C2.08259 2.90327 3.4283 1.55808 5.13014 0.898864C6.11387 0.527422 7.15401 0.327396 8.20534 0.30748C9.55003 0.231445 9.99216 0.231445 13.4264 0.231445C16.9184 0.231445 17.3197 0.24975 18.6503 0.30748C19.7043 0.327568 20.7472 0.527573 21.7339 0.898864C23.4353 1.55882 24.7807 2.90376 25.4413 4.60487C25.8175 5.60345 26.018 6.65957 26.0341 7.72652C26.113 9.07544 26.113 9.51616 26.113 12.9518C26.113 16.3875 26.0933 16.8381 26.0341 18.1715C26.0132 19.225 25.8132 20.2673 25.4427 21.2537C24.7805 22.9542 23.4349 24.2987 21.7339 24.9597C20.7486 25.3289 19.7079 25.5284 18.6559 25.5497C17.3112 25.6271 16.8705 25.6271 13.4264 25.6271ZM13.3785 2.4604C9.93443 2.4604 9.57678 2.47729 8.23209 2.53784C7.42948 2.54847 6.63462 2.69659 5.88204 2.97575C4.77074 3.40099 3.89137 4.27678 3.4616 5.38634C3.18029 6.14711 3.03215 6.95066 3.02369 7.76173C2.94906 9.12613 2.94906 9.48378 2.94906 12.9039C2.94906 16.2833 2.96174 16.693 3.02369 18.049C3.0363 18.8519 3.18434 19.6468 3.4616 20.4004C3.89201 21.5093 4.77122 22.3844 5.88204 22.8096C6.63411 23.0906 7.42929 23.2388 8.23209 23.2475C9.59509 23.3264 9.95414 23.3264 13.3785 23.3264C16.8325 23.3264 17.1901 23.3095 18.5236 23.2475C19.3267 23.2377 20.1222 23.0896 20.875 22.8096C21.9796 22.3807 22.8532 21.5076 23.2828 20.4032C23.5636 19.6418 23.7117 18.8379 23.7207 18.0264H23.7362C23.7967 16.6803 23.7967 16.3213 23.7967 12.8814C23.7967 9.44154 23.7812 9.07967 23.7207 7.73497C23.7081 6.93302 23.56 6.13896 23.2828 5.38634C22.8542 4.28041 21.9804 3.40561 20.875 2.97575C20.1223 2.69518 19.3268 2.54702 18.5236 2.53784C17.162 2.4604 16.8057 2.4604 13.3785 2.4604ZM13.4264 19.4078C10.7933 19.4095 8.41854 17.8247 7.40959 15.3926C6.40064 12.9605 6.95626 10.1601 8.81732 8.29744C10.6784 6.43476 13.4783 5.87672 15.9113 6.88357C18.3443 7.89041 19.9311 10.2638 19.9316 12.8969C19.9277 16.4889 17.0184 19.4008 13.4264 19.4078ZM13.4264 8.66992C11.0935 8.66992 9.20224 10.5611 9.20224 12.8941C9.20224 15.227 11.0935 17.1183 13.4264 17.1183C15.7593 17.1183 17.6506 15.227 17.6506 12.8941C17.6452 10.5634 15.7571 8.67534 13.4264 8.66992ZM20.1851 7.66598C19.3479 7.66287 18.6713 6.98249 18.6728 6.14529C18.6744 5.30809 19.3535 4.63022 20.1907 4.63022C21.0279 4.63022 21.707 5.30808 21.7086 6.14528C21.709 6.5492 21.5485 6.93664 21.2626 7.22199C20.9767 7.50734 20.589 7.6671 20.1851 7.66598Z" fill="#212427"/>
</svg>
