<svg width="26" height="26" viewBox="0 0 26 26" fill="none" xmlns="http://www.w3.org/2000/svg">
<path d="M14.1099 25.5706H8.47763V8.67392H14.1099V11.49C15.3104 9.96265 17.131 9.05208 19.0732 9.00763C22.5661 9.02702 25.3844 11.8693 25.3743 15.3622V25.5706H19.7421V16.0662C19.5168 14.4929 18.1675 13.3255 16.5782 13.3289C15.883 13.3509 15.2268 13.6553 14.761 14.1718C14.2952 14.6884 14.0601 15.3725 14.1099 16.0662V25.5706ZM5.66152 25.5706H0.0292969V8.67392H5.66152V25.5706ZM2.84541 5.85781C1.29011 5.85781 0.0292969 4.59699 0.0292969 3.0417C0.0292969 1.4864 1.29011 0.225586 2.84541 0.225586C4.4007 0.225586 5.66152 1.4864 5.66152 3.0417C5.66152 3.78858 5.36482 4.50486 4.8367 5.03299C4.30858 5.56111 3.59229 5.85781 2.84541 5.85781Z" fill="#212427"/>
</svg>
