<svg width="31" height="25" viewBox="0 0 31 25" fill="none" xmlns="http://www.w3.org/2000/svg">
<path d="M26.5399 4.41895C27.8021 3.66435 28.7466 2.47616 29.1969 1.07622C28.0108 1.77997 26.7132 2.27571 25.36 2.54201C23.4839 0.557393 20.5113 0.0744275 18.1034 1.36298C15.6955 2.65153 14.4482 5.3926 15.0586 8.05454C10.2003 7.81063 5.6739 5.5157 2.60579 1.74082C1.00461 4.50261 1.82285 8.03312 4.47569 9.80898C3.5164 9.77814 2.57837 9.51841 1.73984 9.05145C1.73984 9.07679 1.73984 9.10214 1.73984 9.12748C1.74039 12.0044 3.76796 14.4824 6.58777 15.0526C5.69797 15.2947 4.76463 15.3303 3.85896 15.1568C4.65198 17.617 6.91944 19.3025 9.50386 19.3528C7.36337 21.0328 4.71995 21.9438 1.99892 21.9394C1.51662 21.9401 1.0347 21.9123 0.555664 21.8563C3.31882 23.6319 6.53479 24.5744 9.81926 24.571C14.3888 24.6024 18.7802 22.801 22.0112 19.5696C25.2423 16.3383 27.0434 11.9468 27.0116 7.37727C27.0116 7.11537 27.0055 6.85488 26.9933 6.5958C28.1767 5.74055 29.1981 4.68105 30.0094 3.4671C28.9069 3.95578 27.7374 4.27662 26.5399 4.41895Z" fill="#212427"/>
</svg>
