<svg width="29" height="20" viewBox="0 0 29 20" fill="none" xmlns="http://www.w3.org/2000/svg">
<path d="M14.5715 19.7697H14.5434C14.4561 19.7697 5.72192 19.7528 3.51831 19.1544C2.30657 18.828 1.36026 17.8811 1.0345 16.6692C0.638246 14.4337 0.446895 12.1667 0.462833 9.89643C0.452595 7.62244 0.649124 5.35223 1.04999 3.11382C1.3847 1.9008 2.32686 0.949572 3.53662 0.603261C5.67968 0.0400391 14.1731 0.0400391 14.5335 0.0400391H14.5631C14.6518 0.0400391 23.4085 0.0569357 25.5896 0.655359C26.7988 0.983449 27.7432 1.92838 28.0706 3.13776C28.4794 5.38156 28.6714 7.6595 28.6437 9.94008C28.6535 12.2113 28.4565 14.4787 28.0551 16.7142C27.7251 17.9247 26.7782 18.8694 25.5671 19.1966C23.4268 19.7641 14.932 19.7697 14.5715 19.7697ZM11.7554 5.6793L11.7484 14.1276L19.0872 9.90347L11.7554 5.6793Z" fill="#212427"/>
</svg>
