<svg width="26" height="21" viewBox="0 0 26 21" fill="none" xmlns="http://www.w3.org/2000/svg">
<path d="M14.584 17.375H1.91732C1.04648 17.375 0.333984 17.9937 0.333984 18.75C0.333984 19.5063 1.04648 20.125 1.91732 20.125H14.584C15.4548 20.125 16.1673 19.5063 16.1673 18.75C16.1673 17.9937 15.4548 17.375 14.584 17.375ZM24.084 6.375H1.91732C1.04648 6.375 0.333984 6.99375 0.333984 7.75C0.333984 8.50625 1.04648 9.125 1.91732 9.125H24.084C24.9548 9.125 25.6673 8.50625 25.6673 7.75C25.6673 6.99375 24.9548 6.375 24.084 6.375ZM1.91732 14.625H24.084C24.9548 14.625 25.6673 14.0063 25.6673 13.25C25.6673 12.4937 24.9548 11.875 24.084 11.875H1.91732C1.04648 11.875 0.333984 12.4937 0.333984 13.25C0.333984 14.0063 1.04648 14.625 1.91732 14.625ZM0.333984 2.25C0.333984 3.00625 1.04648 3.625 1.91732 3.625H24.084C24.9548 3.625 25.6673 3.00625 25.6673 2.25C25.6673 1.49375 24.9548 0.875 24.084 0.875H1.91732C1.04648 0.875 0.333984 1.49375 0.333984 2.25Z" fill="#FAA61A"/>
</svg>
