<svg width="46" height="46" viewBox="0 0 46 46" fill="none" xmlns="http://www.w3.org/2000/svg">
<path d="M16.333 26.9587L27.1663 19.917L16.333 12.8753V26.9587ZM5.83301 33.3337C5.16634 33.3337 4.58301 33.0837 4.08301 32.5837C3.58301 32.0837 3.33301 31.5003 3.33301 30.8337V9.16699C3.33301 8.50033 3.58301 7.91699 4.08301 7.41699C4.58301 6.91699 5.16634 6.66699 5.83301 6.66699H34.1663C34.833 6.66699 35.4163 6.91699 35.9163 7.41699C36.4163 7.91699 36.6663 8.50033 36.6663 9.16699V30.8337C36.6663 31.5003 36.4163 32.0837 35.9163 32.5837C35.4163 33.0837 34.833 33.3337 34.1663 33.3337H5.83301Z" fill="#FAA61A"/>
<path d="M37.9708 13.7363C37.0599 14.6251 35.901 15.6846 34.4923 16.9156C34.4919 16.916 34.4914 16.9164 34.491 16.9168L34 17.3399L33.509 16.9168C33.5086 16.9164 33.5082 16.9161 33.5077 16.9157C32.0991 15.6846 30.9401 14.6251 30.0292 13.7363C29.1193 12.8484 28.4033 12.0639 27.8755 11.3817C27.3463 10.6976 26.9933 10.1008 26.7968 9.58886C26.5977 9.07029 26.5 8.55156 26.5 8.03001C26.5 7.01642 26.8505 6.19026 27.5553 5.51712C28.2626 4.84166 29.1329 4.5 30.2 4.5C30.8814 4.5 31.5037 4.65328 32.0753 4.95718C32.6496 5.2625 33.1576 5.70702 33.5979 6.30266L33.9809 6.82073L34.3877 6.32121C34.9152 5.67354 35.4576 5.21722 36.01 4.93099C36.5641 4.64389 37.1584 4.5 37.8 4.5C38.8671 4.5 39.7374 4.84166 40.4447 5.51712C41.1495 6.19026 41.5 7.01642 41.5 8.03001C41.5 8.55156 41.4023 9.07029 41.2032 9.58886C41.0067 10.1008 40.6537 10.6976 40.1245 11.3817C39.5967 12.0639 38.8807 12.8484 37.9708 13.7363Z" fill="#FAA61A" stroke="white"/>
</svg>
