<svg width="48" height="49" viewBox="0 0 48 49" fill="none" xmlns="http://www.w3.org/2000/svg">
<g clip-path="url(#clip0_2811_7400)">
<rect width="48" height="48" transform="translate(0 0.75)" fill="#FAA61A"/>
<path fill-rule="evenodd" clip-rule="evenodd" d="M48 0.75H0V48.75H48V0.75ZM39.999 20.75C39.999 27.076 36.328 32.544 31 35.141V43.751C30.9998 43.932 30.9506 44.1095 30.8575 44.2647C30.7644 44.4198 30.6309 44.5468 30.4713 44.6321C30.3117 44.7174 30.132 44.7578 29.9512 44.749C29.7705 44.7401 29.5955 44.6824 29.445 44.582L24 40.952L18.555 44.582C18.4044 44.6825 18.2293 44.7402 18.0485 44.749C17.8677 44.7578 17.6879 44.7173 17.5282 44.6319C17.3686 44.5465 17.2352 44.4193 17.1421 44.264C17.0491 44.1087 17 43.931 17 43.75V35.142C11.67 32.546 7.999 27.077 7.999 20.75C7.999 11.913 15.162 4.75 23.999 4.75C32.836 4.75 39.999 11.913 39.999 20.75ZM37.999 20.75C37.999 28.482 31.731 34.75 23.999 34.75C16.267 34.75 9.999 28.482 9.999 20.75C9.999 13.018 16.267 6.75 23.999 6.75C31.731 6.75 37.999 13.018 37.999 20.75ZM24 9.75C17.925 9.75 13 14.675 13 20.75C13 26.825 17.925 31.75 24 31.75C30.075 31.75 35 26.825 35 20.75C35 14.675 30.075 9.75 24 9.75Z" fill="white"/>
</g>
<defs>
<clipPath id="clip0_2811_7400">
<rect width="48" height="48" fill="white" transform="translate(0 0.75)"/>
</clipPath>
</defs>
</svg>
