<svg width="35" height="35" viewBox="0 0 35 35" fill="none" xmlns="http://www.w3.org/2000/svg">
<path d="M16.3472 26.042H18.9097V15.792H16.3472V26.042ZM17.5003 12.6316C17.8989 12.6316 18.2335 12.5035 18.504 12.2472C18.7745 11.991 18.9097 11.6635 18.9097 11.2649C18.9097 10.8663 18.7745 10.5246 18.504 10.2399C18.2335 9.95519 17.8989 9.81283 17.5003 9.81283C17.1017 9.81283 16.7672 9.95519 16.4967 10.2399C16.2262 10.5246 16.091 10.8663 16.091 11.2649C16.091 11.6635 16.2262 11.991 16.4967 12.2472C16.7672 12.5035 17.1017 12.6316 17.5003 12.6316ZM17.5003 34.5837C15.1656 34.5837 12.959 34.1352 10.8805 33.2383C8.80206 32.3415 6.98696 31.1172 5.43522 29.5654C3.88349 28.0137 2.65918 26.1986 1.7623 24.1201C0.86543 22.0416 0.416992 19.8208 0.416992 17.4576C0.416992 15.1229 0.86543 12.9163 1.7623 10.8378C2.65918 8.75935 3.88349 6.95137 5.43522 5.41387C6.98696 3.87637 8.80206 2.65918 10.8805 1.7623C12.959 0.86543 15.1798 0.416992 17.543 0.416992C19.8778 0.416992 22.0844 0.86543 24.1628 1.7623C26.2413 2.65918 28.0493 3.87637 29.5868 5.41387C31.1243 6.95137 32.3415 8.75935 33.2383 10.8378C34.1352 12.9163 34.5837 15.1371 34.5837 17.5003C34.5837 19.835 34.1352 22.0416 33.2383 24.1201C32.3415 26.1986 31.1243 28.0137 29.5868 29.5654C28.0493 31.1172 26.2413 32.3415 24.1628 33.2383C22.0844 34.1352 19.8635 34.5837 17.5003 34.5837Z" fill="#FAA61A"/>
</svg>
