<svg width="19" height="19" viewBox="0 0 19 19" fill="none" xmlns="http://www.w3.org/2000/svg">
<path d="M15.2051 12.2302C14.5517 11.5851 13.736 11.5851 13.0867 12.2302C12.5915 12.7213 12.0962 13.2123 11.6093 13.7118C11.4761 13.8491 11.3638 13.8782 11.2014 13.7867C10.881 13.6119 10.5397 13.4704 10.2317 13.2789C8.79592 12.3758 7.59315 11.2147 6.52773 9.90787C5.99918 9.25863 5.52889 8.5636 5.20011 7.78119C5.13352 7.62304 5.14601 7.51899 5.27502 7.38998C5.77028 6.91137 6.25305 6.42027 6.73998 5.92918C7.41836 5.24664 7.41836 4.44758 6.73582 3.76088C6.34877 3.36967 5.96172 2.98678 5.57467 2.59557C5.17514 2.19604 4.77977 1.79234 4.37607 1.39697C3.72267 0.760214 2.90695 0.760214 2.25771 1.40113C1.75829 1.89223 1.27968 2.3958 0.771944 2.87857C0.301659 3.32389 0.0644358 3.86909 0.014494 4.50584C-0.0645804 5.54213 0.18929 6.52016 0.547206 7.47321C1.27968 9.44591 2.39505 11.198 3.74764 12.8045C5.57467 14.977 7.75546 16.6958 10.3067 17.936C11.4553 18.4937 12.6456 18.9223 13.9399 18.9931C14.8305 19.043 15.6046 18.8183 16.2247 18.1233C16.6493 17.6488 17.1279 17.216 17.5773 16.7624C18.2432 16.0882 18.2474 15.2724 17.5857 14.6066C16.7949 13.8116 16 13.0209 15.2051 12.2302Z" fill="#212427"/>
</svg>
