<svg width="30" height="31" viewBox="0 0 30 31" fill="none" xmlns="http://www.w3.org/2000/svg">
<path fill-rule="evenodd" clip-rule="evenodd" d="M18.8953 10.8767L17.4834 10.8777C16.3762 10.8777 16.1616 11.4036 16.1616 12.1752V13.8777H18.8025L18.4584 16.5448H16.1616V23.3867H13.4081V16.5448H11.1056V13.8777H13.4081V11.9117C13.4081 9.62891 14.8022 8.38672 16.8375 8.38672C17.8125 8.38672 18.6506 8.45891 18.8953 8.49172V10.8767ZM15 0.886719C6.71625 0.886719 0 7.60203 0 15.8867C0 24.1705 6.71625 30.8867 15 30.8867C23.2847 30.8867 30 24.1705 30 15.8867C30 7.60203 23.2847 0.886719 15 0.886719Z" fill="white"/>
</svg>
