<svg width="1360" height="28" viewBox="0 0 1360 28" fill="none" xmlns="http://www.w3.org/2000/svg">
<path d="M1047.33 14.929L1095.57 1.11738L999.051 1.23132L1047.33 14.929Z" fill="#ED9E1C"/>
<path d="M1210.97 14.4534L1259.2 0.641779L1162.7 0.755703L1210.97 14.4534Z" fill="#ED9E1C"/>
<path d="M1288.85 6.53391L1232.11 24.2672L1271.1 23.9472L1307.92 12.4431L1288.85 6.53391Z" fill="#6B705A"/>
<path d="M1356.39 5.85971L1299.69 23.747L1338.14 23.4314L1359.99 16.0895L1359.9 7.24231L1356.39 5.85971Z" fill="#C74C00"/>
<path d="M900.466 6.39505L964.771 26.5137L928.082 26.8147L881.431 12.3492L900.466 6.39505Z" fill="#C74C00"/>
<path d="M972.13 6.90901L1033.35 25.8839L996.093 26.1895L953.094 12.8631L972.13 6.90901Z" fill="#6B705A"/>
<path d="M1130.56 3.45289L1198.71 24.5756L1164.13 25.0917L1097.17 25.4879L1059.07 25.8005L1130.56 3.45289ZM1164.13 25.0917L1130.58 14.6895L1097.17 25.4879L1164.13 25.0917Z" fill="#FAA61A"/>
<path d="M582.916 15.123L631.166 1.36835L534.649 1.36835L582.916 15.123Z" fill="#ED9E1C"/>
<path d="M753.037 15.123L801.287 1.36833L704.787 1.36834L753.037 15.123Z" fill="#ED9E1C"/>
<path d="M830.932 7.2946L774.171 24.9609L813.16 24.687L849.991 13.2263L830.932 7.2946Z" fill="#6B705A"/>
<path d="M898.473 6.70118L841.751 24.5215L880.196 24.2513L902.053 16.9352L901.974 8.0879L898.473 6.70118Z" fill="#C74C00"/>
<path d="M436.058 6.41583L500.338 26.6104L463.648 26.8681L417.015 12.3475L436.058 6.41583Z" fill="#C74C00"/>
<path d="M507.719 7.01351L568.916 26.0606L531.659 26.3223L488.676 12.9452L507.719 7.01351Z" fill="#6B705A"/>
<path d="M666.154 3.74453L734.276 24.9477L699.694 25.4229L632.739 25.7401L594.639 26.0077L666.154 3.74453ZM699.694 25.4229L666.154 14.9811L632.739 25.7401L699.694 25.4229Z" fill="#FAA61A"/>
<path d="M125.818 15.791L174.068 2.03631L77.5517 2.03632L125.818 15.791Z" fill="#ED9E1C"/>
<path d="M289.45 15.5078L337.7 1.7531L241.2 1.7531L289.45 15.5078Z" fill="#ED9E1C"/>
<path d="M367.345 7.68034L310.584 25.3467L349.573 25.0727L386.404 13.612L367.345 7.68034Z" fill="#6B705A"/>
<path d="M434.887 7.08497L378.165 24.9053L416.61 24.6351L438.468 17.3189L438.388 8.47169L434.887 7.08497Z" fill="#C74C00"/>
<path d="M-0.000435418 13.6931L43.2393 27.2775L6.54976 27.5352L0.0976453 25.5317L-0.000435418 13.6931Z" fill="#C74C00"/>
<path d="M50.6213 7.68148L111.818 26.7286L74.5609 26.9902L31.5786 13.6131L50.6213 7.68148Z" fill="#6B705A"/>
<path d="M209.056 4.41152L277.179 25.6147L242.597 26.0899L175.642 26.4071L137.541 26.6747L209.056 4.41152ZM242.597 26.0899L209.056 15.6481L175.642 26.4071L242.597 26.0899Z" fill="#FAA61A"/>
</svg>
