<svg width="30" height="29" viewBox="0 0 30 29" fill="none" xmlns="http://www.w3.org/2000/svg">
<path d="M10.2189 18.3976H24.0668L19.5689 12.3413L15.921 17.1226L13.5127 14.0413L10.2189 18.3976ZM7.2085 24.6663C6.64183 24.6663 6.146 24.4538 5.721 24.0288C5.296 23.6038 5.0835 23.108 5.0835 22.5413V2.70801C5.0835 2.14134 5.296 1.64551 5.721 1.22051C6.146 0.795508 6.64183 0.583008 7.2085 0.583008H27.0418C27.6085 0.583008 28.1043 0.795508 28.5293 1.22051C28.9543 1.64551 29.1668 2.14134 29.1668 2.70801V22.5413C29.1668 23.108 28.9543 23.6038 28.5293 24.0288C28.1043 24.4538 27.6085 24.6663 27.0418 24.6663H7.2085ZM2.9585 28.9163C2.39183 28.9163 1.896 28.7038 1.471 28.2788C1.046 27.8538 0.833496 27.358 0.833496 26.7913V4.83301H2.9585V26.7913H24.9168V28.9163H2.9585Z" fill="#FAA61A"/>
</svg>
