<svg width="29" height="30" viewBox="0 0 29 30" fill="none" xmlns="http://www.w3.org/2000/svg">
<path d="M16.3271 12.9396C15.2141 11.8271 13.7049 11.2021 12.1312 11.2021C10.5576 11.2021 9.04838 11.8271 7.93542 12.9396L3.73825 17.1354C2.62527 18.2484 2 19.7579 2 21.3319C2 22.9059 2.62527 24.4154 3.73825 25.5284C4.85123 26.6414 6.36075 27.2667 7.93474 27.2667C9.50873 27.2667 11.0183 26.6414 12.1312 25.5284L14.2291 23.4305" stroke="#FAA61A" stroke-width="4" stroke-linecap="round" stroke-linejoin="round"/>
<path d="M12.1309 17.1352C13.2438 18.2477 14.753 18.8726 16.3267 18.8726C17.9003 18.8726 19.4095 18.2477 20.5225 17.1352L24.7197 12.9393C25.8327 11.8264 26.4579 10.3168 26.4579 8.74285C26.4579 7.16886 25.8327 5.65933 24.7197 4.54635C23.6067 3.43337 22.0972 2.80811 20.5232 2.80811C18.9492 2.80811 17.4397 3.43337 16.3267 4.54635L14.2288 6.64426" stroke="#FAA61A" stroke-width="4" stroke-linecap="round" stroke-linejoin="round"/>
</svg>
