<svg width="34" height="28" viewBox="0 0 34 28" fill="none" xmlns="http://www.w3.org/2000/svg">
<path d="M13.3335 20.7087L24.1668 13.667L13.3335 6.62533V20.7087ZM2.8335 27.0837C2.16683 27.0837 1.5835 26.8337 1.0835 26.3337C0.583496 25.8337 0.333496 25.2503 0.333496 24.5837V2.91699C0.333496 2.25033 0.583496 1.66699 1.0835 1.16699C1.5835 0.666992 2.16683 0.416992 2.8335 0.416992H31.1668C31.8335 0.416992 32.4168 0.666992 32.9168 1.16699C33.4168 1.66699 33.6668 2.25033 33.6668 2.91699V24.5837C33.6668 25.2503 33.4168 25.8337 32.9168 26.3337C32.4168 26.8337 31.8335 27.0837 31.1668 27.0837H2.8335Z" fill="#FAA61A"/>
</svg>
