<svg width="28" height="22" viewBox="0 0 28 22" fill="none" xmlns="http://www.w3.org/2000/svg">
<path d="M3 0C2.20435 0 1.44129 0.289731 0.87868 0.805456C0.316071 1.32118 0 2.02065 0 2.75V8.25C0 8.97935 0.316071 9.67882 0.87868 10.1945C1.44129 10.7103 2.20435 11 3 11H25C25.7956 11 26.5587 10.7103 27.1213 10.1945C27.6839 9.67882 28 8.97935 28 8.25V2.75C28 2.02065 27.6839 1.32118 27.1213 0.805456C26.5587 0.289731 25.7956 0 25 0H3ZM3 14.6667C2.20435 14.6667 1.44129 14.9564 0.87868 15.4721C0.316071 15.9878 0 16.6873 0 17.4167V19.25C0 19.9793 0.316071 20.6788 0.87868 21.1945C1.44129 21.7103 2.20435 22 3 22H9C9.79565 22 10.5587 21.7103 11.1213 21.1945C11.6839 20.6788 12 19.9793 12 19.25V17.4167C12 16.6873 11.6839 15.9878 11.1213 15.4721C10.5587 14.9564 9.79565 14.6667 9 14.6667H3ZM19 14.6667C18.2044 14.6667 17.4413 14.9564 16.8787 15.4721C16.3161 15.9878 16 16.6873 16 17.4167V19.25C16 19.9793 16.3161 20.6788 16.8787 21.1945C17.4413 21.7103 18.2044 22 19 22H25C25.7956 22 26.5587 21.7103 27.1213 21.1945C27.6839 20.6788 28 19.9793 28 19.25V17.4167C28 16.6873 27.6839 15.9878 27.1213 15.4721C26.5587 14.9564 25.7956 14.6667 25 14.6667H19Z" fill="#FAA61A"/>
</svg>
