<svg width="87" height="25" viewBox="0 0 87 25" fill="none" xmlns="http://www.w3.org/2000/svg">
<path d="M71.3023 8.18632C70.1572 8.18632 69.5986 10.2252 69.9617 13.2695C70.3806 16.9561 73.6763 16.9561 75.9106 16.0065V17.8219C74.5421 18.185 73.4249 18.2967 72.4474 18.2967C66.8336 18.2967 66.2471 13.6884 66.2471 12.2919C66.2471 9.94586 67.0849 6.70605 71.5257 6.70605C74.4862 6.70605 76.162 8.63318 76.1899 11.2027H72.6429C72.6429 9.58278 72.3077 8.18632 71.3023 8.18632Z" fill="#FFCD00"/>
<path d="M87.0002 12.4323H80.5765V12.4882C80.7999 17.0407 84.1794 16.929 86.5813 15.9794V17.7948C85.2127 18.1579 84.2631 18.2696 83.2018 18.2696C77.7277 18.2696 76.9177 14.2198 76.9177 12.1251C76.9177 9.7232 77.9511 6.65097 82.1405 6.6789C85.2127 6.6789 87.0002 8.63396 87.0002 11.3152V12.4323ZM83.2298 10.8404V10.6169C83.1739 9.49977 82.9505 8.21501 82.0009 8.21501C81.0792 8.21501 80.744 9.30426 80.6323 10.7845V10.8683H83.2298V10.8404Z" fill="#FFCD00"/>
<path d="M52.2842 17.961H46.2793C44.0729 17.961 42.481 17.0673 42.481 14.6095C42.481 12.6265 43.654 11.649 44.9667 11.2021C45.637 10.9787 46.3352 10.8669 46.9776 10.8111C47.62 10.7552 48.1506 10.7552 48.5137 10.7552H48.5696V10.4201C48.5696 7.85058 46.0001 8.12987 44.5757 8.54881C44.2964 8.63259 44.045 8.71638 43.8495 8.80017V7.12441C45.1342 6.81718 46.0001 6.7334 47.3686 6.7334C50.5805 6.7334 52.3121 8.24158 52.3121 10.7552L52.2842 17.961ZM48.5696 16.4249V12.1517H48.5137C47.592 12.2355 46.2514 12.6544 46.2514 14.4978C46.2514 16.2294 47.0893 16.397 47.8992 16.4249H48.5696Z" fill="#FFCD00"/>
<path d="M27.1191 7.07031V17.9628H23.4045V7.07031H27.1191Z" fill="#5E514D"/>
<path d="M42.3965 8.29803C41.5307 8.32596 40.1621 8.66111 40.1621 10.7V17.9337H36.4475V10.5882C36.4475 8.38181 38.4864 6.70605 41.6424 6.70605H42.3965V8.29803Z" fill="#FFCD00"/>
<path d="M36.3919 2.49023V4.05428C36.0288 4.05428 35.6657 4.05428 35.3026 4.08221C34.9395 4.11014 34.5765 4.166 34.2692 4.30564C33.6548 4.55701 33.2358 5.08767 33.2358 6.14898V7.07066H35.8612V8.66262H33.2358V17.9352H29.5212V7.01479C29.5212 2.96504 32.2862 2.49023 35.6657 2.49023H36.3919Z" fill="#FFCD00"/>
<path d="M64.6014 17.9624H60.8589V11.4269C60.8589 8.85739 59.8814 8.71775 58.5128 8.68982H58.2615V17.9624H54.5469V7.04199C54.8541 7.06992 55.8596 7.09785 59.2111 7.09785C64.6014 7.09785 64.6294 9.61149 64.6294 11.6224L64.6014 17.9624Z" fill="#FFCD00"/>
<path d="M25.2759 4.8351C23.9633 4.8351 22.874 3.77378 22.874 2.43318C22.874 1.1205 23.9353 0.03125 25.2759 0.03125C26.5886 0.03125 27.6779 1.09257 27.6779 2.43318C27.6779 3.77378 26.5886 4.8351 25.2759 4.8351Z" fill="#5E514D"/>
<path d="M25.2759 25.0001C23.9633 25.0001 22.874 23.9388 22.874 22.5982C22.874 21.2855 23.9353 20.1963 25.2759 20.1963C26.5886 20.1963 27.6779 21.2576 27.6779 22.5982C27.6779 23.9388 26.5886 25.0001 25.2759 25.0001Z" fill="#FFCD00"/>
<path d="M0 17.9631V2.49023H3.74253V7.07066H4.91557C7.51299 7.07066 8.79775 8.07611 9.44012 9.24914C10.0825 10.4222 10.0825 11.7628 10.0825 12.4052C10.0825 14.1368 9.55184 17.9352 5.25072 17.9352H0V17.9631ZM6.31203 12.3772C6.31203 10.0032 5.75345 8.55091 4.04976 8.55091H3.74253V16.4549H4.10561C5.75345 16.4549 6.31203 14.8629 6.31203 12.3772Z" fill="#5E514D"/>
<path d="M21.7868 12.6283C21.7868 13.2706 21.7868 14.6112 21.1445 15.7843C20.5021 16.9573 19.2173 17.9628 16.6199 17.9628H15.4469V22.5432H11.7043V7.07031H16.9551C21.2562 7.07031 21.7868 10.8966 21.7868 12.6283ZM15.4469 8.55056V16.4546H15.7541C17.4578 16.4546 18.0164 15.0022 18.0164 12.6283C18.0164 10.1425 17.4578 8.55056 15.81 8.55056H15.4469Z" fill="#5E514D"/>
</svg>
