<svg width="1440" height="1024" viewBox="0 0 1440 1024" fill="none" xmlns="http://www.w3.org/2000/svg">
<path d="M551.039 292.005C541.97 297.927 529.871 299.96 527.075 299.644L492 299.192L493.442 187.25L524.055 187.644C529.209 187.711 544.753 194.394 542.252 205.7L536.597 221.522C558.322 239.327 561.849 251.895 561.669 265.879C561.557 274.566 561.183 280.584 551.005 292.07L551.039 292.005ZM525.5 202.078L506.925 201.838L506.625 225.102C512.258 222.525 526.641 215.783 526.745 207.688C526.781 204.891 525.484 203.262 525.5 202.078ZM523.646 230.916L506.568 240.997L505.987 286.142L526.175 286.402C536.202 286.68 546.926 277.537 547.08 265.626C547.237 253.401 537.689 238.995 523.646 230.867" fill="white"/>
<path d="M579.609 187.11L629.274 187.75L629.094 201.734L592.833 201.267L592.734 208.917L645.051 209.592L644.889 222.112L592.573 221.438L591.72 287.675L633.563 288.214L633.405 300.438L578.158 299.726L579.609 187.11Z" fill="white"/>
<path d="M712.095 301.459L708.282 289.332L672.186 288.867L668.935 300.903L655.514 300.73L686.244 192.308L697.769 192.605L725.83 301.57L712.095 301.459ZM704.654 273.093L675.771 272.721L674.533 278.004L706.216 278.412L704.654 273.093ZM690.732 221.064L679.748 261.863L701.995 262.149L690.732 221.064Z" fill="white"/>
<path d="M735.332 189.86L804.741 190.755L804.559 204.887L778.179 204.547L776.92 302.291L761.161 302.088L762.42 204.344L735.15 203.993L735.332 189.86Z" fill="white"/>
<path d="M868.131 302.432C868.268 303.323 868.99 270.34 868.552 269.758C868.552 269.758 846.28 238.206 834.249 222.189L833.219 302.131L818.926 301.947L820.344 191.831L831.394 191.973L868.871 245.014C868.591 245.01 869.32 210.135 869.546 192.613L882.228 192.628L880.811 302.596L868.131 302.432Z" fill="white"/>
<path d="M924.932 193.764L911.232 193.588L909.809 304L923.51 304.176L924.932 193.764Z" fill="white"/>
<path d="M1003.08 305.5L968.047 233.93L960.725 241.059L959.909 304.351L945.336 304.164L946.747 194.64L962.061 194.838L961.686 223.991L992.414 194.932L1007.45 195.126L980.843 223.794L1018.11 305.694L1003.08 305.5Z" fill="white"/>
<path d="M503.58 356.36C500.94 356.36 498.672 355.832 496.776 354.776C494.904 353.696 493.464 352.184 492.456 350.24C491.448 348.272 490.944 345.956 490.944 343.292C490.944 340.628 491.448 338.324 492.456 336.38C493.464 334.436 494.904 332.936 496.776 331.88C498.672 330.8 500.94 330.26 503.58 330.26C505.284 330.26 506.892 330.524 508.404 331.052C509.94 331.58 511.2 332.336 512.184 333.32L510.672 336.992C509.592 336.08 508.488 335.42 507.36 335.012C506.232 334.58 505.02 334.364 503.724 334.364C501.156 334.364 499.2 335.144 497.856 336.704C496.512 338.24 495.84 340.436 495.84 343.292C495.84 346.148 496.512 348.356 497.856 349.916C499.2 351.476 501.156 352.256 503.724 352.256C505.02 352.256 506.232 352.052 507.36 351.644C508.488 351.212 509.592 350.54 510.672 349.628L512.184 353.3C511.2 354.26 509.94 355.016 508.404 355.568C506.892 356.096 505.284 356.36 503.58 356.36Z" fill="white"/>
<path d="M516.206 356V330.62H527.222C530.006 330.62 532.154 331.292 533.666 332.636C535.178 333.956 535.934 335.816 535.934 338.216C535.934 340.112 535.442 341.684 534.458 342.932C533.474 344.156 532.058 344.984 530.21 345.416C531.434 345.8 532.442 346.724 533.234 348.188L537.482 356H532.406L528.014 347.9C527.582 347.108 527.066 346.568 526.466 346.28C525.89 345.992 525.146 345.848 524.234 345.848H520.814V356H516.206ZM520.814 342.428H526.43C529.79 342.428 531.47 341.06 531.47 338.324C531.47 335.612 529.79 334.256 526.43 334.256H520.814V342.428Z" fill="white"/>
<path d="M540.885 356V330.62H557.769V334.292H545.313V341.276H556.977V344.948H545.313V352.328H557.769V356H540.885Z" fill="white"/>
<path d="M559.173 356L570.657 330.62H574.437L585.921 356H581.241L578.721 350.132H566.337L563.853 356H559.173ZM572.493 335.624L567.921 346.46H577.137L572.565 335.624H572.493Z" fill="white"/>
<path d="M592.005 356V334.472H583.293V330.62H605.325V334.472H596.613V356H592.005Z" fill="white"/>
<path d="M608.245 356V330.62H625.129V334.292H612.673V341.276H624.337V344.948H612.673V352.328H625.129V356H608.245Z" fill="white"/>
<path d="M680.346 356.36C677.706 356.36 675.438 355.832 673.542 354.776C671.67 353.696 670.23 352.184 669.222 350.24C668.214 348.272 667.71 345.956 667.71 343.292C667.71 340.628 668.214 338.324 669.222 336.38C670.23 334.436 671.67 332.936 673.542 331.88C675.438 330.8 677.706 330.26 680.346 330.26C682.05 330.26 683.658 330.524 685.17 331.052C686.706 331.58 687.966 332.336 688.95 333.32L687.438 336.992C686.358 336.08 685.254 335.42 684.126 335.012C682.998 334.58 681.786 334.364 680.49 334.364C677.922 334.364 675.966 335.144 674.622 336.704C673.278 338.24 672.606 340.436 672.606 343.292C672.606 346.148 673.278 348.356 674.622 349.916C675.966 351.476 677.922 352.256 680.49 352.256C681.786 352.256 682.998 352.052 684.126 351.644C685.254 351.212 686.358 350.54 687.438 349.628L688.95 353.3C687.966 354.26 686.706 355.016 685.17 355.568C683.658 356.096 682.05 356.36 680.346 356.36Z" fill="white"/>
<path d="M703.503 356.36C701.055 356.36 698.907 355.82 697.059 354.74C695.235 353.66 693.819 352.148 692.811 350.204C691.803 348.236 691.299 345.932 691.299 343.292C691.299 340.628 691.803 338.324 692.811 336.38C693.819 334.436 695.235 332.936 697.059 331.88C698.883 330.8 701.031 330.26 703.503 330.26C705.975 330.26 708.123 330.8 709.947 331.88C711.771 332.936 713.187 334.436 714.195 336.38C715.203 338.324 715.707 340.616 715.707 343.256C715.707 345.92 715.203 348.236 714.195 350.204C713.187 352.148 711.771 353.66 709.947 354.74C708.123 355.82 705.975 356.36 703.503 356.36ZM703.503 352.4C705.831 352.4 707.643 351.596 708.939 349.988C710.235 348.38 710.883 346.148 710.883 343.292C710.883 340.412 710.235 338.18 708.939 336.596C707.667 335.012 705.855 334.22 703.503 334.22C701.175 334.22 699.363 335.012 698.067 336.596C696.771 338.18 696.123 340.412 696.123 343.292C696.123 346.148 696.771 348.38 698.067 349.988C699.363 351.596 701.175 352.4 703.503 352.4Z" fill="white"/>
<path d="M720.393 356V330.62H723.849L737.493 348.332V330.62H741.777V356H738.357L724.677 338.216V356H720.393Z" fill="white"/>
<path d="M747.323 356V330.62H750.779L764.423 348.332V330.62H768.707V356H765.287L751.607 338.216V356H747.323Z" fill="white"/>
<path d="M774.252 356V330.62H791.136V334.292H778.68V341.276H790.344V344.948H778.68V352.328H791.136V356H774.252Z" fill="white"/>
<path d="M807.506 356.36C804.866 356.36 802.598 355.832 800.702 354.776C798.83 353.696 797.39 352.184 796.382 350.24C795.374 348.272 794.87 345.956 794.87 343.292C794.87 340.628 795.374 338.324 796.382 336.38C797.39 334.436 798.83 332.936 800.702 331.88C802.598 330.8 804.866 330.26 807.506 330.26C809.21 330.26 810.818 330.524 812.33 331.052C813.866 331.58 815.126 332.336 816.11 333.32L814.598 336.992C813.518 336.08 812.414 335.42 811.286 335.012C810.158 334.58 808.946 334.364 807.65 334.364C805.082 334.364 803.126 335.144 801.782 336.704C800.438 338.24 799.766 340.436 799.766 343.292C799.766 346.148 800.438 348.356 801.782 349.916C803.126 351.476 805.082 352.256 807.65 352.256C808.946 352.256 810.158 352.052 811.286 351.644C812.414 351.212 813.518 350.54 814.598 349.628L816.11 353.3C815.126 354.26 813.866 355.016 812.33 355.568C810.818 356.096 809.21 356.36 807.506 356.36Z" fill="white"/>
<path d="M825.9 356V334.472H817.188V330.62H839.22V334.472H830.508V356H825.9Z" fill="white"/>
<path d="M878.216 356L889.7 330.62H893.48L904.964 356H900.284L897.764 350.132H885.38L882.896 356H878.216ZM891.536 335.624L886.964 346.46H896.18L891.608 335.624H891.536Z" fill="white"/>
<path d="M919.021 356.36C916.381 356.36 914.113 355.832 912.217 354.776C910.345 353.696 908.905 352.184 907.897 350.24C906.889 348.272 906.385 345.956 906.385 343.292C906.385 340.628 906.889 338.324 907.897 336.38C908.905 334.436 910.345 332.936 912.217 331.88C914.113 330.8 916.381 330.26 919.021 330.26C920.725 330.26 922.333 330.524 923.845 331.052C925.381 331.58 926.641 332.336 927.625 333.32L926.113 336.992C925.033 336.08 923.929 335.42 922.801 335.012C921.673 334.58 920.461 334.364 919.165 334.364C916.597 334.364 914.641 335.144 913.297 336.704C911.953 338.24 911.281 340.436 911.281 343.292C911.281 346.148 911.953 348.356 913.297 349.916C914.641 351.476 916.597 352.256 919.165 352.256C920.461 352.256 921.673 352.052 922.801 351.644C923.929 351.212 925.033 350.54 926.113 349.628L927.625 353.3C926.641 354.26 925.381 355.016 923.845 355.568C922.333 356.096 920.725 356.36 919.021 356.36Z" fill="white"/>
<path d="M942.611 356.36C939.971 356.36 937.703 355.832 935.807 354.776C933.935 353.696 932.495 352.184 931.487 350.24C930.479 348.272 929.975 345.956 929.975 343.292C929.975 340.628 930.479 338.324 931.487 336.38C932.495 334.436 933.935 332.936 935.807 331.88C937.703 330.8 939.971 330.26 942.611 330.26C944.315 330.26 945.923 330.524 947.435 331.052C948.971 331.58 950.231 332.336 951.215 333.32L949.703 336.992C948.623 336.08 947.519 335.42 946.391 335.012C945.263 334.58 944.051 334.364 942.755 334.364C940.187 334.364 938.231 335.144 936.887 336.704C935.543 338.24 934.871 340.436 934.871 343.292C934.871 346.148 935.543 348.356 936.887 349.916C938.231 351.476 940.187 352.256 942.755 352.256C944.051 352.256 945.263 352.052 946.391 351.644C947.519 351.212 948.623 350.54 949.703 349.628L951.215 353.3C950.231 354.26 948.971 355.016 947.435 355.568C945.923 356.096 944.315 356.36 942.611 356.36Z" fill="white"/>
<path d="M955.237 356V330.62H972.121V334.292H959.665V341.276H971.329V344.948H959.665V352.328H972.121V356H955.237Z" fill="white"/>
<path d="M985.114 356.36C983.122 356.36 981.274 356.108 979.57 355.604C977.866 355.076 976.426 354.368 975.25 353.48L976.654 349.844C977.83 350.684 979.114 351.332 980.506 351.788C981.922 352.244 983.458 352.472 985.114 352.472C987.01 352.472 988.39 352.16 989.254 351.536C990.118 350.888 990.55 350.06 990.55 349.052C990.55 348.212 990.238 347.552 989.614 347.072C989.014 346.592 987.97 346.196 986.482 345.884L982.522 345.056C978.01 344.096 975.754 341.78 975.754 338.108C975.754 336.524 976.174 335.144 977.014 333.968C977.854 332.792 979.018 331.88 980.506 331.232C981.994 330.584 983.71 330.26 985.654 330.26C987.382 330.26 989.002 330.524 990.514 331.052C992.026 331.556 993.286 332.276 994.294 333.212L992.89 336.668C990.898 334.988 988.474 334.148 985.618 334.148C983.962 334.148 982.666 334.496 981.73 335.192C980.794 335.888 980.326 336.8 980.326 337.928C980.326 338.792 980.614 339.488 981.19 340.016C981.766 340.52 982.75 340.916 984.142 341.204L988.066 342.032C990.442 342.536 992.206 343.328 993.358 344.408C994.534 345.488 995.122 346.928 995.122 348.728C995.122 350.24 994.714 351.572 993.898 352.724C993.082 353.876 991.918 354.776 990.406 355.424C988.918 356.048 987.154 356.36 985.114 356.36Z" fill="white"/>
<path d="M1007.82 356.36C1005.83 356.36 1003.98 356.108 1002.28 355.604C1000.58 355.076 999.137 354.368 997.961 353.48L999.365 349.844C1000.54 350.684 1001.82 351.332 1003.22 351.788C1004.63 352.244 1006.17 352.472 1007.82 352.472C1009.72 352.472 1011.1 352.16 1011.96 351.536C1012.83 350.888 1013.26 350.06 1013.26 349.052C1013.26 348.212 1012.95 347.552 1012.32 347.072C1011.72 346.592 1010.68 346.196 1009.19 345.884L1005.23 345.056C1000.72 344.096 998.465 341.78 998.465 338.108C998.465 336.524 998.885 335.144 999.725 333.968C1000.56 332.792 1001.73 331.88 1003.22 331.232C1004.7 330.584 1006.42 330.26 1008.36 330.26C1010.09 330.26 1011.71 330.524 1013.22 331.052C1014.74 331.556 1016 332.276 1017 333.212L1015.6 336.668C1013.61 334.988 1011.18 334.148 1008.33 334.148C1006.67 334.148 1005.38 334.496 1004.44 335.192C1003.5 335.888 1003.04 336.8 1003.04 337.928C1003.04 338.792 1003.32 339.488 1003.9 340.016C1004.48 340.52 1005.46 340.916 1006.85 341.204L1010.78 342.032C1013.15 342.536 1014.92 343.328 1016.07 344.408C1017.24 345.488 1017.83 346.928 1017.83 348.728C1017.83 350.24 1017.42 351.572 1016.61 352.724C1015.79 353.876 1014.63 354.776 1013.12 355.424C1011.63 356.048 1009.86 356.36 1007.82 356.36Z" fill="white"/>
</svg>
